<svg width="72" height="72" viewBox="0 0 72 72" fill="none" xmlns="http://www.w3.org/2000/svg">
<rect width="72" height="72" rx="36" fill="white"/>
<path d="M35.814 67.6279C53.3843 67.6279 67.6279 53.3843 67.6279 35.814C67.6279 18.2436 53.3843 4 35.814 4C18.2436 4 4 18.2436 4 35.814C4 53.3843 18.2436 67.6279 35.814 67.6279Z" stroke="#3F3D56" stroke-width="2"/>
<path d="M10.8631 41.7946C10.2877 41.5238 10 41.1177 10 40.5761C10 40.4069 10.0254 40.2377 10.0762 40.0685C10.2116 39.4592 10.4569 38.5877 10.8123 37.4538C11.1846 36.32 11.5146 35.4654 11.8023 34.89C11.9208 34.6869 12.0139 34.4754 12.0815 34.2554C12.1492 34.0354 12.1916 33.8916 12.2085 33.8238C12.2931 33.5192 12.3439 33.3415 12.3608 33.2908L12.3354 33.0369C12.3354 32.9692 12.3523 32.9016 12.3862 32.8338C12.42 32.7661 12.4792 32.69 12.5638 32.6054C12.8008 32.4023 13.0546 32.0046 13.3254 31.4123L14.29 28.6454L14.5946 27.7823C14.6116 27.7146 14.6454 27.5962 14.6962 27.4269C14.7469 27.2577 14.7723 27.1392 14.7723 27.0715C14.7723 27.0038 14.7554 26.97 14.7215 26.97C14.5862 27.0038 14.3154 27.0292 13.9092 27.0462C13.7062 27.08 13.5538 27.1054 13.4523 27.1223C13.3508 27.1223 13.2746 27.1308 13.2238 27.1477H13.0462C12.7246 27.1477 12.5638 27.0292 12.5638 26.7923C12.6146 26.4877 12.7162 26.2 12.8685 25.9292C13.0377 25.6584 13.2408 25.5146 13.4777 25.4977L14.4677 25.2692C14.62 25.2354 14.8316 25.2185 15.1023 25.2185C15.3393 25.2185 15.5846 25.2438 15.8385 25.2946C16.0415 25.1592 16.1516 25.0408 16.1685 24.9392C16.2362 24.6516 16.3885 24.4231 16.6254 24.2538C16.8623 24.0846 17.1077 24 17.3615 24C17.5646 24 17.7339 24.0592 17.8692 24.1777C18.0046 24.2792 18.0723 24.44 18.0723 24.66C18.0723 24.7615 18.0639 24.8377 18.0469 24.8885C18.0469 24.9054 18.0469 24.9392 18.0469 24.99C18.0469 25.0238 18.0977 25.0408 18.1992 25.0408C18.3685 25.0408 18.8677 24.9477 19.6969 24.7615C19.8323 24.7446 20.0608 24.7277 20.3823 24.7108C20.7208 24.6769 21 24.66 21.22 24.66C21.5416 24.66 21.787 24.6854 21.9562 24.7362C22.1085 24.7023 22.2439 24.6854 22.3623 24.6854C22.4808 24.6854 22.5823 24.6769 22.6669 24.66C22.9546 24.66 23.1323 24.6346 23.2 24.5838C23.3523 24.6177 23.5216 24.6516 23.7077 24.6854C23.9108 24.7023 24.0546 24.7277 24.1392 24.7615C24.2239 24.7954 24.3 24.8377 24.3677 24.8885C24.4185 24.9562 24.4438 25.0154 24.4438 25.0662C24.4438 25.1169 24.4354 25.1508 24.4185 25.1677L24.3677 25.1423C24.3846 25.1423 24.41 25.1592 24.4438 25.1931C24.4946 25.21 24.5454 25.2438 24.5962 25.2946C24.7316 25.3623 24.7992 25.5315 24.7992 25.8023C24.7992 26.0054 24.7654 26.2085 24.6977 26.4115C24.6808 26.5131 24.6385 26.5892 24.5708 26.64C24.52 26.6738 24.3846 26.6992 24.1646 26.7162C23.9446 26.7162 23.6569 26.7077 23.3015 26.6908C22.6585 26.6062 22.1254 26.5638 21.7023 26.5638C21.11 26.5638 20.1962 26.6484 18.9608 26.8177C18.6562 26.8346 18.3685 26.8769 18.0977 26.9446C17.8438 27.0123 17.6831 27.0546 17.6154 27.0715C17.5308 27.0715 17.4039 27.1985 17.2346 27.4523C17.0654 27.7062 16.9131 28.0277 16.7777 28.4169C16.6762 28.5692 16.3631 29.3054 15.8385 30.6254C15.4323 31.5731 15.2292 32.0469 15.2292 32.0469C15.4323 32.1146 15.8216 32.1485 16.3969 32.1485C17.1585 32.1485 18.2669 32.0808 19.7223 31.9454C20.3823 31.81 20.8308 31.7592 21.0677 31.7931C21.22 31.81 21.3469 31.92 21.4485 32.1231C21.5669 32.3092 21.6262 32.5208 21.6262 32.7577C21.6262 32.9269 21.5923 33.0792 21.5246 33.2146C21.457 33.35 21.3639 33.4515 21.2454 33.5192C20.89 33.7392 20.1538 33.9084 19.0369 34.0269C18.2923 34.0946 17.2685 34.1285 15.9654 34.1285C15.2716 34.1285 14.857 34.1115 14.7215 34.0777C14.6877 34.0946 14.6369 34.1454 14.5692 34.23C14.5185 34.3146 14.4931 34.4161 14.4931 34.5346C14.1885 35.0931 13.7569 36.0831 13.1985 37.5046C12.6569 38.9262 12.3862 39.7892 12.3862 40.0938C12.2677 40.3985 12.1746 40.7454 12.1069 41.1346C12.09 41.2023 12.0646 41.2954 12.0308 41.4138C11.9969 41.5323 11.9631 41.6085 11.9292 41.6423C11.8785 41.8961 11.7093 42.0231 11.4215 42.0231C11.1846 42.0231 10.9985 41.9469 10.8631 41.7946ZM22.2493 40.6269C22.1985 40.5254 22.0546 40.39 21.8177 40.2208C21.5808 40.0515 21.4624 39.95 21.4624 39.9161C21.4624 39.8484 21.42 39.7554 21.3354 39.6369C21.2677 39.5015 21.2001 39.3831 21.1324 39.2815C20.997 39.1462 21.09 38.7061 21.4116 37.9615C21.7331 37.2169 22.1647 36.3369 22.7062 35.3215C22.8077 35.22 22.9347 35.0423 23.087 34.7885C23.2562 34.5346 23.3662 34.3908 23.417 34.3569C23.417 34.2892 23.4424 34.23 23.4931 34.1792C23.5439 34.1115 23.6031 34.0777 23.6708 34.0777L23.8739 33.6715C23.9416 33.5192 24.2716 33.1554 24.8639 32.58C25.4562 32.0046 25.9216 31.6154 26.26 31.4123C26.5816 31.1923 26.9285 31.0823 27.3008 31.0823C27.707 31.0823 28.0539 31.2008 28.3416 31.4377L29.027 32.0215C29.5347 32.4446 29.8223 32.69 29.89 32.7577L30.8293 33.5954L30.3977 34.8646C30.2454 35.3215 30.1693 35.7531 30.1693 36.1592C30.1693 36.8023 30.347 37.4031 30.7024 37.9615C30.787 38.1477 30.897 38.2915 31.0324 38.3931C31.1847 38.4946 31.3793 38.5623 31.6162 38.5961C31.9885 38.6639 32.1747 38.85 32.1747 39.1546C32.1747 39.5269 32.107 39.8062 31.9716 39.9923C31.8362 40.1784 31.6754 40.2969 31.4893 40.3477C31.2185 40.3815 31.0324 40.3985 30.9308 40.3985C30.4401 40.3985 29.9916 40.2715 29.5854 40.0177C29.1793 39.7638 28.8239 39.3323 28.5193 38.7231C28.4516 38.6215 28.3585 38.4354 28.24 38.1646C28.1385 37.8938 28.0793 37.7077 28.0624 37.6062C27.9439 37.7754 27.7493 37.9954 27.4785 38.2662C25.7354 40.0261 24.3224 40.9061 23.2393 40.9061C22.867 40.9061 22.537 40.8131 22.2493 40.6269ZM23.6454 38.52C23.9162 38.5538 24.4408 38.2492 25.2193 37.6062C25.3039 37.5384 25.397 37.4623 25.4985 37.3777C25.6 37.2761 25.71 37.1746 25.8285 37.0731C26.3024 36.6839 26.6662 36.3623 26.92 36.1085C27.1908 35.8377 27.4616 35.5162 27.7324 35.1438L28.2908 34.23C28.1216 33.8577 27.9693 33.6123 27.8339 33.4938C27.6985 33.3585 27.5631 33.2908 27.4277 33.2908C27.0893 33.2908 26.6662 33.5954 26.1585 34.2046C25.6508 34.7969 25.0416 35.7023 24.3308 36.9208C24.1447 37.2254 23.9924 37.5469 23.8739 37.8854C23.7554 38.2069 23.6793 38.4185 23.6454 38.52ZM35.8374 29.0769C35.702 28.9077 35.6343 28.6708 35.6343 28.3662C35.6343 28.0954 35.6851 27.8161 35.7866 27.5285C35.8881 27.2238 36.0235 26.9616 36.1928 26.7415C36.4297 26.4539 36.7766 26.31 37.2335 26.31C37.5382 26.31 37.792 26.3862 37.9951 26.5385C38.232 26.9446 38.3505 27.2916 38.3505 27.5792C38.3505 27.8331 38.2828 28.0531 38.1474 28.2392C37.8597 28.5608 37.5551 28.8061 37.2335 28.9754C36.912 29.1446 36.6159 29.2292 36.3451 29.2292C36.1251 29.2292 35.9559 29.1785 35.8374 29.0769ZM32.0805 46.4654C31.7251 46.8378 31.2682 47.0238 30.7097 47.0238C30.1005 47.0238 29.5843 46.8037 29.1612 46.3638C28.8397 45.9577 28.6028 45.5431 28.4505 45.12C28.2982 44.6969 28.222 44.3161 28.222 43.9777C28.222 43.7069 28.2728 43.4869 28.3743 43.3177C28.4758 43.1654 28.6197 43.0892 28.8058 43.0892C28.9582 43.0892 29.1697 43.1654 29.4405 43.3177C29.6943 43.47 29.8212 43.6307 29.8212 43.8C29.8212 44.1046 29.8551 44.3415 29.9228 44.5108C29.9735 44.68 30.1005 44.7731 30.3035 44.79C30.3543 44.8069 30.422 44.8154 30.5066 44.8154C30.8282 44.8154 31.1412 44.5785 31.4458 44.1046C31.7335 43.7323 32.0635 43.0385 32.4358 42.0231C32.8251 41.0246 33.0451 40.4577 33.0958 40.3223C33.2312 39.8484 33.3497 39.3239 33.4512 38.7485C33.5697 38.1731 33.6459 37.8092 33.6797 37.6569L34.0097 35.88C34.0605 35.4908 34.1282 35.1185 34.2128 34.7631C34.3143 34.4077 34.3735 34.1877 34.3905 34.1031C34.3905 33.68 34.4497 33.35 34.5682 33.1131C34.5682 32.8931 34.602 32.6223 34.6697 32.3008C34.7543 31.9623 34.7966 31.7508 34.7966 31.6662C34.8643 31.5984 35.0505 31.6238 35.3551 31.7423C35.6597 31.8438 35.8797 31.9623 36.0151 32.0977C36.2182 32.3177 36.362 32.5292 36.4466 32.7323C36.5481 32.9184 36.5989 33.2484 36.5989 33.7223C36.5989 34.01 36.5735 34.3992 36.5228 34.89C36.5228 35.0931 36.4382 35.6092 36.2689 36.4385C36.0997 37.2677 35.9389 37.9869 35.7866 38.5961C35.702 38.9177 35.6428 39.1292 35.6089 39.2308C35.5074 39.5861 35.4397 39.8654 35.4058 40.0685C35.3889 40.2038 35.2789 40.5508 35.0758 41.1092C34.8728 41.6 34.7543 41.9469 34.7205 42.15C34.6697 42.5054 34.4666 43.0554 34.1112 43.8C33.9928 44.1046 33.6797 44.5785 33.172 45.2215C32.6812 45.8646 32.3174 46.2792 32.0805 46.4654ZM40.3277 40.6269C40.1923 40.6269 39.9977 40.5931 39.7438 40.5254C39.5069 40.4577 39.3631 40.3985 39.3123 40.3477C39.2108 40.2631 39.1092 40.1362 39.0077 39.9669C38.9062 39.7808 38.8554 39.5692 38.8554 39.3323C38.8554 38.96 38.9908 38.5708 39.2615 38.1646C39.3631 37.9615 39.6169 37.2592 40.0231 36.0577L40.5308 34.6615C40.5646 34.3739 40.5477 34.1708 40.48 34.0523C40.4123 33.9169 40.2685 33.8408 40.0485 33.8238C39.8623 33.8238 39.7269 33.7646 39.6423 33.6462C39.5577 33.5108 39.5154 33.2992 39.5154 33.0115C39.5662 32.5208 39.7608 32.1654 40.0992 31.9454C40.37 31.81 40.7423 31.7423 41.2161 31.7423C41.6392 31.7423 41.9185 31.8015 42.0538 31.92C42.1892 32.0215 42.3077 32.25 42.4092 32.6054C42.5108 32.9608 42.5869 33.2908 42.6377 33.5954C42.7223 33.5446 42.9423 33.3162 43.2977 32.91L43.8561 32.3262C44.1438 32.1231 44.4738 31.9284 44.846 31.7423C45.2185 31.5562 45.4806 31.4631 45.6329 31.4631C45.8023 31.4631 46.0225 31.5477 46.2929 31.7169C46.5639 31.8862 46.7415 32.0469 46.826 32.1992C47.0799 32.6731 47.2068 33.0623 47.2068 33.3669C47.2068 33.6038 47.1477 33.79 47.0291 33.9254C46.5722 34.5008 46.0645 34.7885 45.506 34.7885C45.3708 34.7885 45.2609 34.78 45.176 34.7631C45.0916 34.7461 44.99 34.6277 44.8714 34.4077C44.7531 34.1877 44.6854 34.0185 44.6685 33.9C44.6685 33.8492 44.5415 33.9508 44.2877 34.2046C44.0508 34.4415 43.8985 34.5938 43.8308 34.6615L43.3992 35.1185C43.1284 35.44 42.8492 35.8631 42.5615 36.3877C42.2907 36.9123 41.8846 37.7077 41.3431 38.7738L41.0131 39.5608C40.8438 39.95 40.7169 40.2292 40.6323 40.3985C40.5477 40.5508 40.4462 40.6269 40.3277 40.6269ZM51.6583 30.6C51.6075 30.6508 51.5568 30.6762 51.506 30.6762C51.4382 30.6762 51.3283 30.6254 51.176 30.5238C51.0066 30.5069 50.7782 30.3631 50.4906 30.0923C50.2197 29.8215 50.0845 29.6438 50.0845 29.5592C50.0674 29.3562 50.0845 29.0685 50.1352 28.6962C50.186 28.3069 50.2788 27.96 50.4145 27.6554C50.5668 27.3508 50.7611 27.19 50.9983 27.1731C51.1165 27.19 51.2775 27.2323 51.4806 27.3C51.6837 27.3508 51.9122 27.4269 52.166 27.5285C52.4872 28.1715 52.6483 28.7215 52.6483 29.1785C52.6483 29.8554 52.3183 30.3292 51.6583 30.6ZM49.3229 41.1346C48.9168 41.1346 48.5614 40.9231 48.2568 40.5C47.9688 40.0769 47.7911 39.5523 47.7237 38.9262C47.7911 38.3 47.8419 37.8431 47.876 37.5554C48.062 36.7261 48.2905 35.7531 48.5614 34.6361C48.8489 33.5023 49.0183 32.8762 49.0691 32.7577C49.1535 32.6054 49.2888 32.5292 49.4752 32.5292C49.6612 32.5292 49.8643 32.6054 50.0845 32.7577C50.3212 32.8931 50.516 33.0877 50.6683 33.3415C50.8036 33.5277 50.8714 33.7392 50.8714 33.9761C50.8714 34.3315 50.702 35.0761 50.3637 36.21C50.1265 37.0561 49.9742 37.6569 49.9068 38.0123C49.8389 38.3677 49.8136 38.7485 49.8306 39.1546C49.7628 39.9161 49.6949 40.4408 49.6275 40.7285C49.5597 41.0161 49.4582 41.1515 49.3229 41.1346ZM60.4234 40.3985C60.1696 40.3985 59.9157 40.3308 59.6619 40.1954C59.408 40.06 59.2049 39.8569 59.0526 39.5861L58.9257 39.3323C58.7226 38.7569 58.6211 38.1984 58.6211 37.6569V36.54C58.6211 36.3539 58.604 36.2608 58.5703 36.2608C58.4346 36.2608 57.8508 36.8108 56.8188 37.9108C56.0909 38.6723 55.4563 39.2646 54.9149 39.6877C54.3902 40.0938 54.0265 40.2969 53.8234 40.2969C53.7556 40.2969 53.5949 40.2377 53.3411 40.1192C53.0872 39.9839 52.9262 39.8823 52.8588 39.8146C52.7402 39.6961 52.664 39.5523 52.6303 39.3831C52.5962 39.2138 52.5796 38.8923 52.5796 38.4185C52.5796 37.8769 52.6894 37.2677 52.9095 36.5908C53.1292 35.8969 53.5017 34.9746 54.0265 33.8238C54.1617 33.5869 54.2969 33.2992 54.4326 32.9608C54.8217 32.0808 55.1854 31.4715 55.5242 31.1331C55.6594 31.1331 55.7526 31.1415 55.8034 31.1585C56.0231 31.1754 56.2769 31.2769 56.5649 31.4631C56.8696 31.6492 57.0556 31.8946 57.1234 32.1992C57.1234 32.4869 57.0809 32.7746 56.9965 33.0623C56.9116 33.35 56.7172 33.7054 56.4126 34.1285C56.2262 34.3823 55.9811 34.9323 55.6765 35.7785C55.5916 35.9138 55.4734 36.1254 55.3211 36.4131C55.1854 36.6839 55.118 36.8362 55.118 36.87C55.1346 36.8869 55.1854 36.8531 55.2703 36.7685C55.3548 36.6669 55.4392 36.5738 55.5242 36.4892L56.2095 35.8038C57.5462 34.4669 58.5786 33.7815 59.3065 33.7477C59.6785 33.7477 60.0085 33.9423 60.2965 34.3315C60.584 34.7208 60.728 35.1862 60.728 35.7277C60.728 35.8292 60.7109 36.1169 60.6772 36.5908V38.0377C61.0663 37.9361 61.3626 37.8431 61.5657 37.7585C61.9885 37.6061 62.4288 37.5131 62.8857 37.4792C62.8515 37.7669 62.6909 38.1477 62.4034 38.6215C62.1325 39.0954 61.8108 39.51 61.4388 39.8654C61.0663 40.2208 60.728 40.3985 60.4234 40.3985Z" fill="#3F3D56"/>
<path d="M42.1237 46.9477C42.1237 46.9662 42.1075 46.9754 42.0752 46.9754C42.0521 46.9754 42.0244 46.9662 41.9921 46.9477C41.9598 46.9293 41.9344 46.9039 41.916 46.8716C41.8791 46.7931 41.8606 46.6962 41.8606 46.5808L41.8675 46.297C42.0106 45.457 42.1791 44.6123 42.3729 43.7631C42.4375 43.537 42.4906 43.3223 42.5321 43.1193C42.5783 42.9162 42.606 42.787 42.6152 42.7316C42.6152 42.7177 42.6014 42.7246 42.5737 42.7523C42.5506 42.7754 42.5275 42.8054 42.5044 42.8423C42.4814 42.8746 42.4721 42.8977 42.4767 42.9116L42.3037 43.1677C42.276 43.1954 42.2114 43.3016 42.1098 43.4862C42.0406 43.6339 41.9783 43.7493 41.9229 43.8323L41.7291 44.1993C41.586 44.4623 41.4983 44.6216 41.466 44.677C41.4198 44.7462 41.3529 44.8662 41.2652 45.037C41.2191 45.1477 41.136 45.2793 41.016 45.4316C40.9791 45.4823 40.9421 45.5377 40.9052 45.5977C40.8729 45.6577 40.8521 45.697 40.8429 45.7154C40.8429 45.7385 40.7944 45.817 40.6975 45.9508C40.6052 46.0846 40.5198 46.1954 40.4414 46.2831C40.3352 46.3939 40.2475 46.4746 40.1783 46.5254C40.1091 46.5716 40.0444 46.5946 39.9844 46.5946C39.906 46.5946 39.8206 46.5508 39.7283 46.4631C39.6683 46.3985 39.6244 46.3223 39.5967 46.2346C39.5737 46.147 39.5621 46.0385 39.5621 45.9093C39.5621 45.7939 39.5783 45.6 39.6106 45.3277C39.6152 45.3046 39.6591 45.0577 39.7421 44.587C39.8298 44.1116 39.8829 43.8508 39.9014 43.8046C39.906 43.777 39.9083 43.7446 39.9083 43.7077C39.9083 43.6662 39.9014 43.6454 39.8875 43.6454C39.8737 43.6454 39.8483 43.6754 39.8114 43.7354C39.7975 43.7539 39.7144 43.8831 39.5621 44.1231C39.4144 44.3631 39.2552 44.67 39.0844 45.0439C38.8167 45.5377 38.6183 45.9093 38.4891 46.1585C38.3598 46.4031 38.2652 46.5785 38.2052 46.6846C38.1267 46.837 38.0806 46.92 38.0667 46.9339C37.9975 46.9339 37.9098 46.8762 37.8037 46.7608C37.7898 46.7331 37.7829 46.7077 37.7829 46.6846C37.7829 46.6523 37.7967 46.5993 37.8244 46.5254C37.8567 46.4516 37.9006 46.3546 37.956 46.2346C38.0991 45.9531 38.1937 45.7939 38.2398 45.757C38.2952 45.6831 38.3275 45.6023 38.3367 45.5146C38.3967 45.4316 38.4821 45.2816 38.5929 45.0646C38.6621 44.9539 38.7429 44.8154 38.8352 44.6493C38.9321 44.4831 39.0175 44.3239 39.0914 44.1716L39.2852 43.8323C39.4652 43.5185 39.6083 43.2762 39.7144 43.1054C39.8252 42.9346 39.9083 42.8216 39.9637 42.7662C40.0375 42.6785 40.0744 42.6093 40.0744 42.5585C40.0744 42.4616 40.0929 42.3739 40.1298 42.2954C40.1714 42.2123 40.2129 42.1754 40.2544 42.1846C40.3098 42.1846 40.3537 42.1916 40.386 42.2054C40.4229 42.2146 40.4598 42.2423 40.4967 42.2885C40.506 42.3023 40.5198 42.3254 40.5383 42.3577C40.5614 42.3854 40.5775 42.4177 40.5867 42.4546C40.6006 42.487 40.6075 42.5285 40.6075 42.5793C40.6075 42.6346 40.6006 42.7039 40.5867 42.787C40.5821 42.847 40.5637 42.9831 40.5314 43.1954C40.5129 43.297 40.5037 43.3593 40.5037 43.3823C40.3837 43.747 40.2752 44.2039 40.1783 44.7531C40.086 45.2977 40.0398 45.6808 40.0398 45.9023C40.0398 45.9531 40.0444 45.9877 40.0537 46.0062C40.086 46.0293 40.1137 46.0316 40.1367 46.0131C40.1644 45.9946 40.2037 45.9346 40.2544 45.8331C40.3144 45.7223 40.416 45.5793 40.5591 45.4039C40.5683 45.39 40.6583 45.2377 40.8291 44.947C41.2537 44.25 41.6667 43.5508 42.0683 42.8493L42.2483 42.5654C42.3175 42.4546 42.3844 42.3531 42.4491 42.2608C42.5137 42.1639 42.5644 42.1016 42.6014 42.0739C42.6475 42.037 42.6914 42.0185 42.7329 42.0185C42.8206 42.0185 42.8991 42.0716 42.9683 42.1777C43.0375 42.2839 43.0721 42.4177 43.0721 42.5793C43.0721 42.7039 43.0467 42.8954 42.996 43.1539C42.9452 43.4077 42.8783 43.6639 42.7952 43.9223C42.7675 44.0516 42.7283 44.2131 42.6775 44.407C42.6267 44.6008 42.5737 44.7762 42.5183 44.9331C42.5091 45.0116 42.4906 45.1108 42.4629 45.2308C42.4583 45.2539 42.4444 45.3254 42.4214 45.4454C42.4029 45.5608 42.3983 45.6393 42.4075 45.6808C42.3383 45.8054 42.3037 46.0546 42.3037 46.4285L42.2829 46.5877C42.2737 46.717 42.2644 46.8046 42.2552 46.8508C42.246 46.897 42.2321 46.9177 42.2137 46.9131C42.2044 46.9085 42.1906 46.9062 42.1721 46.9062C42.1398 46.9062 42.1237 46.92 42.1237 46.9477ZM43.271 46.3662C43.2572 46.3385 43.2341 46.3108 43.2018 46.2831C43.1741 46.2508 43.1602 46.23 43.1602 46.2208C43.1602 46.17 43.1487 46.1308 43.1256 46.1031C43.1164 46.0939 43.1118 46.0731 43.1118 46.0408C43.1118 45.967 43.1464 45.8423 43.2156 45.667C43.2895 45.487 43.3841 45.2931 43.4995 45.0854C43.5272 45.0577 43.5618 45.0093 43.6033 44.94C43.6495 44.8708 43.6795 44.8316 43.6933 44.8223C43.6933 44.8039 43.7002 44.7877 43.7141 44.7739C43.7279 44.7554 43.7441 44.7462 43.7625 44.7462V44.7046C43.7625 44.6631 43.8387 44.5639 43.991 44.407C44.1433 44.2454 44.2679 44.1346 44.3649 44.0746C44.4802 43.9962 44.5979 43.957 44.7179 43.957C44.801 43.957 44.8725 43.98 44.9325 44.0262C44.9556 44.0539 45.0618 44.1531 45.251 44.3239L45.5072 44.5523L45.3825 44.8985C45.341 45.0231 45.3202 45.1362 45.3202 45.2377C45.3202 45.4131 45.371 45.5816 45.4725 45.7431C45.4956 45.7939 45.5418 45.8423 45.611 45.8885C45.6802 45.9346 45.7495 45.9623 45.8187 45.9716C45.9202 45.99 45.971 46.0408 45.971 46.1239C45.971 46.2162 45.9295 46.2716 45.8464 46.29C45.8279 46.2946 45.8002 46.297 45.7633 46.297C45.491 46.297 45.2556 46.1054 45.0572 45.7223C45.0387 45.6946 45.0133 45.6439 44.981 45.57C44.9533 45.4962 44.9372 45.4454 44.9325 45.4177C44.9049 45.4546 44.8702 45.4985 44.8287 45.5493C44.7872 45.6 44.7479 45.6439 44.711 45.6808C44.2079 46.1839 43.811 46.4354 43.5202 46.4354C43.4279 46.4354 43.3449 46.4123 43.271 46.3662ZM43.5202 45.9785C43.5202 46.0016 43.5433 46.0085 43.5895 45.9993C43.6402 45.99 43.7002 45.967 43.7695 45.93C43.8433 45.8931 43.9172 45.8446 43.991 45.7846C44.3879 45.4431 44.6741 45.1454 44.8495 44.8916L45.0018 44.6423C44.9556 44.5454 44.9072 44.4762 44.8564 44.4346C44.8056 44.3885 44.7595 44.3654 44.7179 44.3654C44.621 44.3654 44.4687 44.4877 44.261 44.7323C44.0533 44.9723 43.8641 45.2562 43.6933 45.5839C43.6518 45.6623 43.6149 45.7431 43.5825 45.8262C43.5502 45.9046 43.5295 45.9554 43.5202 45.9785ZM46.4524 46.2416C46.3832 46.2416 46.3301 46.2254 46.2932 46.1931C46.2563 46.1608 46.2309 46.1354 46.2171 46.117C46.2078 46.0985 46.2032 46.0754 46.2032 46.0477C46.2032 46.0293 46.2194 45.9439 46.2517 45.7916L46.314 45.5631C46.3601 45.3739 46.4017 45.217 46.4386 45.0923C46.4571 44.977 46.4917 44.8546 46.5424 44.7254C46.5978 44.5962 46.6301 44.5177 46.6394 44.49C46.6763 44.3562 46.7478 44.1485 46.854 43.867L47.0617 43.3062C47.2232 42.8677 47.3201 42.6 47.3524 42.5031L47.4632 42.1985C47.4632 42.1246 47.5001 42.0877 47.574 42.0877C47.6386 42.0877 47.6917 42.1246 47.7332 42.1985C47.7794 42.2677 47.8024 42.3485 47.8024 42.4408C47.8024 42.51 47.7886 42.577 47.7609 42.6416C47.6963 42.78 47.6247 42.9554 47.5463 43.1677C47.4724 43.3754 47.424 43.5116 47.4009 43.5762C47.244 44.0193 47.1309 44.3146 47.0617 44.4623C47.0617 44.4808 47.0547 44.5131 47.0409 44.5593C47.0271 44.6054 47.0109 44.647 46.9924 44.6839L46.9163 44.8362C46.9163 44.85 46.8909 44.947 46.8401 45.127C46.7755 45.3254 46.7363 45.4708 46.7224 45.5631C46.7455 45.5216 46.794 45.4593 46.8678 45.3762C46.9417 45.2885 47.0109 45.217 47.0755 45.1616C47.3294 44.9446 47.4863 44.8154 47.5463 44.7739C47.6017 44.7416 47.6478 44.7116 47.6847 44.6839C47.7217 44.6562 47.7471 44.6377 47.7609 44.6285C47.7609 44.6054 47.7863 44.5939 47.8371 44.5939C47.8555 44.5939 47.8647 44.5916 47.8647 44.587C47.8694 44.5823 47.8717 44.5708 47.8717 44.5523C47.8717 44.52 47.9247 44.4923 48.0309 44.4693C48.1371 44.4416 48.2317 44.4277 48.3147 44.4277C48.3701 44.4277 48.414 44.4393 48.4463 44.4623C48.4786 44.4854 48.5201 44.5362 48.5709 44.6146C48.6494 44.7254 48.6886 44.8454 48.6886 44.9746C48.6886 45.0485 48.6747 45.1246 48.6471 45.2031C48.6471 45.24 48.6401 45.2977 48.6263 45.3762C48.6171 45.45 48.6124 45.5146 48.6124 45.57L48.5709 45.7916H48.6817C48.714 45.7916 48.744 45.7962 48.7717 45.8054C48.804 45.8146 48.8247 45.8216 48.834 45.8262C48.8755 45.877 48.9124 45.9023 48.9447 45.9023C48.9863 45.9023 49.0071 45.9185 49.0071 45.9508C49.0071 45.9693 48.9978 45.9923 48.9794 46.02C48.9609 46.0477 48.9355 46.0708 48.9032 46.0893C48.7832 46.1631 48.6817 46.2 48.5986 46.2C48.5201 46.2 48.4394 46.1631 48.3563 46.0893C48.2547 45.9877 48.204 45.8654 48.204 45.7223C48.204 45.6485 48.2178 45.5608 48.2455 45.4593L48.2663 45.2377C48.2755 45.127 48.2801 45.0577 48.2801 45.03C48.2801 44.9239 48.2547 44.8708 48.204 44.8708C48.1394 44.8708 48.0147 44.9285 47.8301 45.0439C47.6501 45.1546 47.4632 45.2954 47.2694 45.4662C47.0755 45.6323 46.9209 45.8008 46.8055 45.9716C46.7363 46.0593 46.6763 46.1262 46.6255 46.1723C46.5794 46.2139 46.5355 46.237 46.494 46.2416H46.4524ZM51.4431 44.047C51.48 44.1208 51.4984 44.2016 51.4984 44.2893C51.4984 44.4277 51.4615 44.5523 51.3877 44.6631C51.3415 44.7277 51.3 44.8246 51.2631 44.9539C51.2307 45.0831 51.1984 45.2562 51.1661 45.4731C51.1246 45.6485 51.0738 45.9185 51.0138 46.2831C50.94 46.477 50.8938 46.6223 50.8754 46.7193C50.8707 46.747 50.8477 46.8046 50.8061 46.8923C50.7692 46.98 50.7392 47.0493 50.7161 47.1C50.5361 47.4739 50.3307 47.76 50.1 47.9585C49.8692 48.157 49.6177 48.2654 49.3454 48.2839C49.2715 48.2931 49.2277 48.2977 49.2138 48.2977C49.1723 48.2977 49.1331 48.2908 49.0961 48.277C49.0638 48.2631 49.0269 48.2446 48.9854 48.2216C48.9669 48.2123 48.9415 48.1962 48.9092 48.1731C48.8769 48.15 48.8538 48.1316 48.84 48.1177C48.8307 48.1085 48.8261 48.097 48.8261 48.0831C48.8261 48.06 48.84 48.037 48.8677 48.0139C48.8954 47.9908 48.9392 47.9793 48.9992 47.9793C49.0315 47.9977 49.0869 48.007 49.1654 48.007C49.2438 48.007 49.29 47.9977 49.3038 47.9793C49.3131 47.97 49.3407 47.9539 49.3869 47.9308C49.4331 47.9123 49.4861 47.8962 49.5461 47.8823C49.6892 47.8131 49.8161 47.7231 49.9269 47.6123C50.0423 47.5062 50.1484 47.37 50.2454 47.2039C50.3607 47.0285 50.4369 46.8693 50.4738 46.7262C50.5154 46.6293 50.5615 46.4908 50.6123 46.3108C50.6677 46.1262 50.7115 45.96 50.7438 45.8123L50.6538 45.8954C50.6307 45.9231 50.5731 45.9646 50.4807 46.02C50.3884 46.0708 50.3331 46.0962 50.3146 46.0962C50.31 46.0962 50.3031 46.0985 50.2938 46.1031C50.2846 46.1077 50.28 46.117 50.28 46.1308C50.28 46.1493 50.22 46.1793 50.1 46.2208C49.98 46.2577 49.9038 46.2762 49.8715 46.2762C49.8254 46.2762 49.7746 46.2531 49.7192 46.207C49.6684 46.1562 49.6315 46.1077 49.6084 46.0616C49.5946 46.0293 49.5761 45.9923 49.5531 45.9508C49.53 45.9093 49.5115 45.87 49.4977 45.8331C49.4838 45.7916 49.4769 45.7454 49.4769 45.6946C49.4769 45.6346 49.4815 45.5885 49.4907 45.5562C49.5461 45.3485 49.6384 45.0554 49.7677 44.677C49.9015 44.2985 50.0031 44.0562 50.0723 43.95C50.1092 43.8993 50.1531 43.8739 50.2038 43.8739C50.2731 43.8739 50.3284 43.9108 50.37 43.9846C50.4115 44.04 50.4323 44.0862 50.4323 44.1231C50.4323 44.1508 50.4207 44.19 50.3977 44.2408C50.3746 44.2916 50.3446 44.3516 50.3077 44.4208C50.2892 44.4716 50.2661 44.527 50.2384 44.587C50.2107 44.647 50.1969 44.6839 50.1969 44.6977C50.1923 44.7162 50.1784 44.7739 50.1554 44.8708C50.1323 44.9631 50.1115 45.0093 50.0931 45.0093C50.0607 45.037 50.0261 45.1431 49.9892 45.3277C49.9523 45.5123 49.9338 45.6554 49.9338 45.757C49.9338 45.8077 49.9407 45.8331 49.9546 45.8331C50.2269 45.8331 50.5223 45.63 50.8407 45.2239C50.8823 45.0208 50.9192 44.85 50.9515 44.7116C51.0115 44.4762 51.0577 44.2662 51.09 44.0816C51.1177 44.017 51.1384 43.98 51.1523 43.9708C51.1661 43.957 51.1961 43.95 51.2423 43.95C51.2977 43.95 51.3369 43.9546 51.36 43.9639C51.3831 43.9731 51.4107 44.0008 51.4431 44.047ZM53.4424 46.6016C53.4101 46.62 53.3663 46.6131 53.3109 46.5808C53.2601 46.5485 53.2094 46.5 53.1586 46.4354C53.1217 46.3754 53.0986 46.3131 53.0894 46.2485C53.0847 46.1839 53.0824 46.05 53.0824 45.847C53.0824 45.8008 53.0732 45.7777 53.0547 45.7777C53.0409 45.7777 53.0086 45.8008 52.9578 45.847C52.9071 45.8885 52.8447 45.9462 52.7709 46.02C52.6509 46.1354 52.5401 46.2254 52.4386 46.29C52.3371 46.3546 52.254 46.3846 52.1894 46.38C52.1386 46.38 52.0832 46.3454 52.0232 46.2762C51.9678 46.207 51.924 46.1262 51.8917 46.0339C51.8778 45.9785 51.8709 45.9139 51.8709 45.84C51.8709 45.6462 51.9101 45.4108 51.9886 45.1339C52.0717 44.857 52.1663 44.6193 52.2724 44.4208C52.3832 44.2177 52.4801 44.1162 52.5632 44.1162C52.6324 44.1162 52.6971 44.1923 52.7571 44.3446C52.7709 44.3723 52.7778 44.3954 52.7778 44.4139C52.7778 44.4462 52.7594 44.4785 52.7224 44.5108C52.6532 44.5985 52.5724 44.7554 52.4801 44.9816C52.3878 45.2077 52.314 45.4177 52.2586 45.6116C52.2078 45.8054 52.1986 45.9023 52.2309 45.9023C52.2955 45.9023 52.3717 45.877 52.4594 45.8262C52.5471 45.7754 52.6347 45.7085 52.7224 45.6254C52.8101 45.5377 52.8886 45.4454 52.9578 45.3485C53.0271 45.247 53.1124 45.1108 53.214 44.94C53.4078 44.6308 53.514 44.4508 53.5324 44.4C53.6017 44.2708 53.6501 44.1877 53.6778 44.1508C53.7101 44.1093 53.7494 44.0816 53.7955 44.0677H53.8924C53.9201 44.0723 53.9524 44.0931 53.9894 44.13C54.0217 44.1439 54.0401 44.16 54.0447 44.1785C54.054 44.1923 54.0586 44.2131 54.0586 44.2408L53.9478 44.497L53.8855 44.6423C53.8809 44.6608 53.8555 44.7139 53.8094 44.8016C53.7032 45.037 53.6224 45.2262 53.5671 45.3693C53.5117 45.5123 53.4701 45.66 53.4424 45.8123C53.4378 45.8354 53.4355 45.8746 53.4355 45.93C53.4355 46.0685 53.4494 46.1654 53.4771 46.2208C53.5186 46.3039 53.5601 46.3639 53.6017 46.4008C53.6247 46.4193 53.6363 46.4377 53.6363 46.4562C53.6363 46.4885 53.6086 46.5208 53.5532 46.5531C53.5024 46.5854 53.4655 46.6016 53.4424 46.6016ZM55.9218 46.5946C55.8895 46.6085 55.8618 46.6154 55.8387 46.6154C55.8203 46.6154 55.7972 46.6062 55.7695 46.5877C55.7418 46.5693 55.7072 46.5439 55.6657 46.5116C55.6334 46.4608 55.6126 46.4146 55.6034 46.3731C55.5987 46.3316 55.5964 46.2485 55.5964 46.1239C55.6103 45.9946 55.6634 45.7662 55.7557 45.4385C55.848 45.1062 55.9149 44.8916 55.9564 44.7946C55.9749 44.7346 55.9841 44.6839 55.9841 44.6423C55.9841 44.6054 55.9726 44.5823 55.9495 44.5731C55.9264 44.5593 55.8803 44.5477 55.8111 44.5385C55.6403 44.52 55.4811 44.5731 55.3334 44.6977C55.1903 44.8223 55.0357 45.0162 54.8695 45.2793C54.7218 45.51 54.648 45.7108 54.648 45.8816C54.648 45.9139 54.6526 45.9439 54.6618 45.9716C54.6757 46.0085 54.7126 46.027 54.7726 46.027C54.8141 46.027 54.8649 46.0177 54.9249 45.9993C54.9895 45.9808 55.0449 45.9577 55.0911 45.93C55.1187 45.9162 55.2064 45.877 55.3541 45.8123C55.3818 45.8123 55.4003 45.8216 55.4095 45.84C55.4234 45.8539 55.4303 45.8839 55.4303 45.93C55.4303 45.967 55.4534 45.9946 55.4995 46.0131C55.518 46.0362 55.4903 46.08 55.4164 46.1446C55.3426 46.2046 55.2341 46.2762 55.0911 46.3593C54.9757 46.3916 54.8718 46.4077 54.7795 46.4077C54.6872 46.4077 54.5972 46.3777 54.5095 46.3177C54.3572 46.23 54.2811 46.0731 54.2811 45.847C54.2811 45.6946 54.3203 45.5054 54.3987 45.2793C54.4772 45.0946 54.5626 44.94 54.6549 44.8154C54.7518 44.6862 54.8764 44.5431 55.0287 44.3862C55.0518 44.3631 55.098 44.3331 55.1672 44.2962C55.2411 44.2546 55.3218 44.22 55.4095 44.1923C55.5572 44.1462 55.6795 44.1231 55.7764 44.1231C55.8595 44.1231 55.9334 44.1439 55.998 44.1854L56.088 44.1993C56.1249 44.1993 56.1526 44.1831 56.1711 44.1508C56.1941 44.1185 56.2287 44.0446 56.2749 43.9293L56.448 43.4723C56.4849 43.3754 56.5403 43.2277 56.6141 43.0293C56.6926 42.8308 56.7641 42.6554 56.8287 42.5031C56.8611 42.4431 56.8864 42.3808 56.9049 42.3162C56.928 42.2516 56.9464 42.2123 56.9603 42.1985H57.0918C57.1149 42.1985 57.1495 42.217 57.1957 42.2539C57.2418 42.2862 57.2718 42.3277 57.2857 42.3785C57.2857 42.4293 57.2649 42.5285 57.2234 42.6762C57.1818 42.8193 57.1241 42.9785 57.0503 43.1539C57.0134 43.2462 56.9834 43.3154 56.9603 43.3616C56.7987 43.7446 56.688 44.0308 56.628 44.22L56.5034 44.5385C56.448 44.6539 56.4157 44.7393 56.4064 44.7946C56.3741 44.9285 56.3372 45.0462 56.2957 45.1477C56.2541 45.2446 56.2311 45.3 56.2264 45.3139L56.1641 45.5008C56.0857 45.727 56.0326 45.8862 56.0049 45.9785C55.9818 46.0662 55.9703 46.1562 55.9703 46.2485C55.9703 46.3408 55.9749 46.417 55.9841 46.477C55.9841 46.5277 55.9634 46.567 55.9218 46.5946ZM58.9098 46.747C58.7944 46.7746 58.716 46.7239 58.6744 46.5946C58.6098 46.4146 58.5775 46.2254 58.5775 46.027C58.5775 45.9716 58.5798 45.9323 58.5844 45.9093L58.5983 45.7639L58.3283 45.9785C58.1806 46.1077 58.0329 46.2046 57.8852 46.2693C57.7421 46.3339 57.6106 46.3662 57.4906 46.3662C57.4121 46.3523 57.336 46.32 57.2621 46.2693C57.1929 46.2139 57.1421 46.1493 57.1098 46.0754C57.0914 46.0385 57.0821 45.9831 57.0821 45.9093C57.0821 45.7385 57.1283 45.5377 57.2206 45.307C57.3129 45.0716 57.4283 44.8777 57.5667 44.7254C57.7652 44.4254 57.9867 44.2754 58.2314 44.2754C58.3467 44.2754 58.4621 44.31 58.5775 44.3793C58.6929 44.4254 58.7598 44.4485 58.7783 44.4485C58.806 44.4485 58.8267 44.437 58.8406 44.4139C58.8544 44.3908 58.8683 44.3493 58.8821 44.2893C58.9329 44.077 58.9814 43.8993 59.0275 43.7562C59.1291 43.4516 59.2167 43.207 59.2906 43.0223C59.3644 42.8377 59.4544 42.6346 59.5606 42.4131C59.6067 42.3162 59.646 42.2539 59.6783 42.2262C59.7152 42.1939 59.7544 42.18 59.796 42.1846C59.8975 42.1846 59.976 42.2539 60.0314 42.3923C60.0452 42.4246 60.0521 42.457 60.0521 42.4893C60.0521 42.5216 60.0383 42.5654 60.0106 42.6208C59.8906 42.8285 59.7429 43.1677 59.5675 43.6385C59.3921 44.1093 59.256 44.5177 59.1591 44.8639C59.1175 45.0162 59.0806 45.2354 59.0483 45.5216C59.0206 45.8077 59.0067 46.0454 59.0067 46.2346C59.0067 46.3177 59.0114 46.3777 59.0206 46.4146C59.0437 46.4931 59.0552 46.5623 59.0552 46.6223C59.0552 46.6685 59.0437 46.6985 59.0206 46.7123C58.9975 46.7308 58.9606 46.7423 58.9098 46.747ZM57.7398 45.9785C57.846 45.9554 57.9752 45.8862 58.1275 45.7708C58.1552 45.7523 58.2221 45.7039 58.3283 45.6254C58.4344 45.547 58.5152 45.4639 58.5706 45.3762C58.626 45.2885 58.6652 45.1893 58.6883 45.0785C58.6929 44.9954 58.6837 44.9285 58.6606 44.8777C58.6421 44.8223 58.6029 44.7693 58.5429 44.7185C58.4967 44.6862 58.4391 44.67 58.3698 44.67C58.2452 44.67 58.1298 44.7208 58.0237 44.8223C57.8991 44.9331 57.7883 45.0762 57.6914 45.2516C57.5944 45.427 57.5206 45.63 57.4698 45.8608C57.456 45.9485 57.5021 45.9923 57.6083 45.9923C57.6637 45.9923 57.7075 45.9877 57.7398 45.9785ZM60.9627 43.6523C60.8751 43.6523 60.7851 43.6062 60.6928 43.5139C60.6051 43.417 60.5612 43.3177 60.5612 43.2162C60.5612 43.1931 60.5889 43.14 60.6443 43.057C60.6997 42.9739 60.7274 42.9277 60.7274 42.9185C60.7597 42.9185 60.7874 42.9208 60.8104 42.9254C60.8335 42.93 60.8612 42.9393 60.8935 42.9531C60.9351 43.0454 60.9997 43.14 61.0874 43.237C61.1151 43.2739 61.1404 43.3085 61.1635 43.3408C61.1866 43.3731 61.1981 43.4008 61.1981 43.4239C61.1981 43.5023 61.1935 43.5554 61.1843 43.5831C61.1797 43.6108 61.1612 43.6293 61.1289 43.6385C61.1012 43.6477 61.0458 43.6523 60.9627 43.6523ZM59.9451 46.2762C59.9312 46.2762 59.9127 46.2716 59.8897 46.2623C59.8666 46.2531 59.8504 46.2462 59.8412 46.2416C59.8412 46.2277 59.8343 46.2046 59.8204 46.1723C59.8112 46.1354 59.8066 46.1123 59.8066 46.1031C59.7697 46.0846 59.7512 46.0616 59.7512 46.0339C59.7512 46.0108 59.7581 45.9785 59.772 45.937C59.832 45.8308 59.9381 45.5908 60.0904 45.217C60.2427 44.8385 60.3281 44.6146 60.3466 44.5454C60.3466 44.527 60.3535 44.5039 60.3674 44.4762C60.3812 44.4485 60.3974 44.4254 60.4158 44.407C60.4343 44.3885 60.4551 44.3793 60.4781 44.3793C60.5289 44.3793 60.5751 44.4139 60.6166 44.4831C60.6627 44.5523 60.6858 44.6285 60.6858 44.7116C60.6858 44.767 60.6328 44.9262 60.5266 45.1893C60.4251 45.4477 60.3097 45.7085 60.1804 45.9716C60.162 46.0085 60.1343 46.0616 60.0974 46.1308C60.0651 46.2 60.0397 46.2416 60.0212 46.2554C60.0027 46.2693 59.9774 46.2762 59.9451 46.2762ZM63.2511 46.5323C63.1818 46.5323 63.1103 46.4793 63.0364 46.3731C62.9672 46.2623 62.9326 46.1539 62.9326 46.0477C62.9326 45.9739 62.9487 45.8423 62.9811 45.6531C63.018 45.4593 63.0618 45.27 63.1126 45.0854C63.1403 45.0023 63.1541 44.9423 63.1541 44.9054C63.1541 44.8823 63.1449 44.8708 63.1264 44.8708C63.108 44.8708 63.0526 44.8985 62.9603 44.9539C62.8126 45.0323 62.7111 45.1039 62.6557 45.1685C62.6326 45.187 62.5957 45.2193 62.5449 45.2654C62.4941 45.3116 62.448 45.3485 62.4064 45.3762C62.3187 45.4454 62.2011 45.547 62.0534 45.6808C61.9103 45.81 61.7926 45.9208 61.7003 46.0131C61.6726 46.0639 61.6334 46.0893 61.5826 46.0893C61.5687 46.0893 61.548 46.0846 61.5203 46.0754C61.4649 46.0616 61.4164 46.0316 61.3749 45.9854C61.3334 45.9346 61.3126 45.8816 61.3126 45.8262C61.3126 45.757 61.3518 45.6116 61.4303 45.39C61.5134 45.1685 61.6149 44.9262 61.7349 44.6631C61.7534 44.6308 61.7695 44.5846 61.7834 44.5246C61.7972 44.46 61.8041 44.4 61.8041 44.3446C61.8041 44.3123 61.8111 44.2754 61.8249 44.2339C61.8387 44.1923 61.8549 44.1623 61.8734 44.1439C61.8872 44.1208 61.908 44.1093 61.9357 44.1093C61.9957 44.1093 62.0464 44.1439 62.088 44.2131C62.1618 44.2823 62.1988 44.37 62.1988 44.4762C62.1988 44.5639 62.1734 44.677 62.1226 44.8154C62.0903 44.88 62.0649 44.9331 62.0464 44.9746C62.0326 45.0116 62.0234 45.037 62.0187 45.0508C62.0326 45.0508 62.0926 45.0185 62.1988 44.9539L62.3718 44.85L62.5795 44.6908C62.6857 44.6077 62.7457 44.5662 62.7595 44.5662C62.778 44.5662 62.8011 44.5593 62.8287 44.5454C62.8564 44.5316 62.8795 44.5154 62.898 44.497C62.9118 44.4831 62.9234 44.4739 62.9326 44.4693C62.9464 44.4646 62.9557 44.4623 62.9603 44.4623C62.9649 44.4623 62.9764 44.46 62.9949 44.4554C63.0134 44.4508 63.0295 44.4416 63.0434 44.4277C63.0618 44.4093 63.0941 44.4 63.1403 44.4C63.2049 44.4 63.2695 44.4208 63.3341 44.4623C63.3987 44.5039 63.4311 44.55 63.4311 44.6008C63.4311 44.6146 63.4357 44.6285 63.4449 44.6423C63.4541 44.6516 63.4611 44.6585 63.4657 44.6631C63.4841 44.6631 63.5003 44.6885 63.5141 44.7393C63.528 44.7854 63.5349 44.8431 63.5349 44.9123C63.5349 45.0139 63.5234 45.0993 63.5003 45.1685C63.5003 45.2193 63.4911 45.2839 63.4726 45.3623C63.4541 45.4408 63.4426 45.4916 63.438 45.5146L63.3964 45.6946C63.3364 45.8793 63.3064 46.0316 63.3064 46.1516C63.3064 46.2439 63.3249 46.3154 63.3618 46.3662C63.3711 46.3846 63.3757 46.4031 63.3757 46.4216C63.3757 46.4493 63.3641 46.4746 63.3411 46.4977C63.3226 46.5208 63.2926 46.5323 63.2511 46.5323Z" fill="#3F3D56"/>
</svg>
