<svg width="90" height="43" viewBox="0 0 90 43" fill="none" xmlns="http://www.w3.org/2000/svg">
<path d="M1.60902 30.3229C0.642103 29.8678 0.158569 29.1852 0.158569 28.2752C0.158569 27.9907 0.201229 27.7064 0.286549 27.422C0.514122 26.3981 0.926454 24.9335 1.5237 23.028C2.14941 21.1224 2.70399 19.6863 3.18745 18.7193C3.38655 18.378 3.543 18.0225 3.65671 17.6528C3.7705 17.283 3.84162 17.0413 3.87001 16.9275C4.01226 16.4156 4.09758 16.117 4.12597 16.0317L4.08331 15.6051C4.08331 15.4913 4.11178 15.3776 4.16863 15.2638C4.22557 15.15 4.32508 15.022 4.46726 14.8798C4.86547 14.5386 5.29207 13.8702 5.74706 12.8748L7.36815 8.22485L7.88008 6.77441C7.90854 6.66062 7.9654 6.46159 8.05072 6.17716C8.13604 5.89273 8.1787 5.6937 8.1787 5.57992C8.1787 5.46613 8.15031 5.40928 8.09338 5.40928C7.86588 5.46613 7.41081 5.50879 6.72825 5.53726C6.38697 5.59411 6.13101 5.63677 5.96036 5.66524C5.78972 5.66524 5.66174 5.67943 5.57642 5.7079H5.2778C4.73749 5.7079 4.46726 5.50879 4.46726 5.11066C4.55258 4.59873 4.72322 4.11528 4.97918 3.66021C5.26361 3.20514 5.60489 2.96345 6.00302 2.93498L7.66677 2.55104C7.92273 2.49419 8.27829 2.46572 8.73328 2.46572C9.13149 2.46572 9.54382 2.50838 9.97043 2.5937C10.3117 2.36621 10.4966 2.1671 10.525 1.99646C10.6388 1.513 10.8948 1.12906 11.2929 0.844632C11.6911 0.560204 12.1034 0.41803 12.53 0.41803C12.8713 0.41803 13.1558 0.517546 13.3832 0.716653C13.6108 0.887294 13.7245 1.15745 13.7245 1.5272C13.7245 1.69784 13.7103 1.82582 13.6819 1.91114C13.6819 1.9396 13.6819 1.99646 13.6819 2.08178C13.6819 2.13863 13.7672 2.1671 13.9378 2.1671C14.2223 2.1671 15.0613 2.01065 16.4548 1.69784C16.6824 1.66937 17.0663 1.64098 17.6066 1.61252C18.1755 1.55566 18.6447 1.5272 19.0144 1.5272C19.5548 1.5272 19.9672 1.56986 20.2515 1.65518C20.5075 1.59832 20.7351 1.56986 20.9341 1.56986C21.1332 1.56986 21.3039 1.55566 21.446 1.5272C21.9296 1.5272 22.2282 1.48454 22.3419 1.39921C22.5979 1.45607 22.8823 1.513 23.1951 1.56986C23.5364 1.59832 23.7782 1.64098 23.9203 1.69784C24.0626 1.75469 24.1906 1.82582 24.3043 1.91114C24.3896 2.02492 24.4323 2.12444 24.4323 2.20976C24.4323 2.29508 24.4181 2.35193 24.3896 2.3804L24.3043 2.33774C24.3327 2.33774 24.3754 2.36621 24.4323 2.42306C24.5176 2.45153 24.6029 2.50838 24.6882 2.5937C24.9158 2.70749 25.0295 2.99184 25.0295 3.44691C25.0295 3.78819 24.9726 4.12947 24.8589 4.47075C24.8305 4.64139 24.7593 4.76938 24.6456 4.8547C24.5602 4.91155 24.3327 4.95421 23.963 4.98268C23.5933 4.98268 23.1098 4.96848 22.5125 4.94002C21.4318 4.79784 20.536 4.72671 19.8249 4.72671C18.8296 4.72671 17.2938 4.86889 15.2176 5.15332C14.7057 5.18178 14.2223 5.25283 13.7672 5.36662C13.3406 5.4804 13.0704 5.55145 12.9566 5.57992C12.8145 5.57992 12.6012 5.79322 12.3167 6.21982C12.0324 6.64642 11.7764 7.18681 11.5489 7.84091C11.3782 8.09687 10.8521 9.33402 9.97043 11.5524C9.28786 13.145 8.94658 13.9413 8.94658 13.9413C9.28786 14.0551 9.94204 14.112 10.909 14.112C12.1888 14.112 14.0516 13.9982 16.4974 13.7707C17.6066 13.5432 18.3603 13.4579 18.7584 13.5147C19.0144 13.5432 19.2277 13.728 19.3983 14.0693C19.5974 14.3821 19.697 14.7377 19.697 15.1358C19.697 15.4202 19.6401 15.6762 19.5263 15.9037C19.4126 16.1312 19.2562 16.3018 19.0571 16.4156C18.4598 16.7854 17.2227 17.0697 15.3456 17.2688C14.0943 17.3826 12.3737 17.4395 10.1837 17.4395C9.01771 17.4395 8.32095 17.411 8.09338 17.3541C8.03652 17.3826 7.9512 17.4679 7.83741 17.6101C7.75209 17.7523 7.70943 17.9229 7.70943 18.122C7.19751 19.0606 6.47229 20.7243 5.53376 23.1133C4.6237 25.5023 4.16863 26.9527 4.16863 27.4646C3.9696 27.9765 3.81316 28.5596 3.69937 29.2137C3.67098 29.3275 3.62832 29.4839 3.57139 29.683C3.51453 29.8821 3.45768 30.01 3.40075 30.0669C3.31543 30.4935 3.03108 30.7068 2.54754 30.7068C2.14941 30.7068 1.83659 30.5788 1.60902 30.3229ZM20.7442 28.3605C20.6588 28.1898 20.4171 27.9623 20.0189 27.6779C19.6208 27.3935 19.4217 27.2229 19.4217 27.166C19.4217 27.0522 19.3506 26.8958 19.2084 26.6967C19.0946 26.4692 18.9809 26.2701 18.8671 26.0995C18.6396 25.872 18.796 25.1325 19.3364 23.8812C19.8768 22.6298 20.602 21.1509 21.512 19.4445C21.6827 19.2739 21.896 18.9752 22.1519 18.5486C22.4364 18.122 22.6212 17.8803 22.7065 17.8234C22.7065 17.7096 22.7492 17.6101 22.8345 17.5248C22.9198 17.411 23.0193 17.3541 23.1331 17.3541L23.4744 16.6716C23.5882 16.4156 24.1428 15.8042 25.1382 14.8372C26.1335 13.8702 26.9157 13.2161 27.4845 12.8748C28.0249 12.5051 28.6078 12.3202 29.2335 12.3202C29.9161 12.3202 30.4992 12.5193 30.9826 12.9175L32.1344 13.8987C32.9876 14.6097 33.4711 15.022 33.5849 15.1358L35.1633 16.5436L34.4381 18.6766C34.1821 19.4445 34.0542 20.1697 34.0542 20.8523C34.0542 21.933 34.3528 22.9426 34.95 23.8812C35.0922 24.194 35.2771 24.4357 35.5046 24.6064C35.7606 24.777 36.0877 24.8908 36.4858 24.9477C37.1115 25.0615 37.4243 25.3743 37.4243 25.8862C37.4243 26.5119 37.3105 26.9812 37.083 27.294C36.8555 27.6068 36.5853 27.8059 36.2725 27.8912C35.8174 27.9481 35.5046 27.9765 35.334 27.9765C34.5092 27.9765 33.7555 27.7632 33.073 27.3366C32.3904 26.91 31.7932 26.1848 31.2812 25.161C31.1675 24.9903 31.0111 24.6775 30.812 24.2224C30.6413 23.7674 30.5418 23.4546 30.5134 23.2839C30.3143 23.5683 29.9872 23.938 29.5322 24.3931C26.6028 27.3508 24.2281 28.8297 22.4079 28.8297C21.7822 28.8297 21.2276 28.6733 20.7442 28.3605ZM23.0905 24.8197C23.5455 24.8765 24.4271 24.3646 25.7354 23.2839C25.8776 23.1701 26.034 23.0422 26.2047 22.9C26.3753 22.7293 26.5601 22.5587 26.7593 22.3881C27.5556 21.734 28.167 21.1936 28.5936 20.767C29.0487 20.3119 29.5037 19.7716 29.9588 19.1459L30.8973 17.6101C30.6129 16.9844 30.3569 16.5721 30.1294 16.373C29.9019 16.1455 29.6743 16.0317 29.4469 16.0317C28.8781 16.0317 28.167 16.5436 27.3138 17.5674C26.4606 18.5628 25.4368 20.0844 24.2423 22.1321C23.9295 22.644 23.6735 23.1844 23.4744 23.7532C23.2753 24.2936 23.1473 24.649 23.0905 24.8197ZM43.5797 8.95008C43.3522 8.66565 43.2384 8.26751 43.2384 7.75559C43.2384 7.30052 43.3238 6.83126 43.4944 6.3478C43.665 5.83588 43.8925 5.39508 44.177 5.02533C44.5751 4.54188 45.1582 4.30011 45.926 4.30011C46.438 4.30011 46.8646 4.42809 47.2058 4.68405C47.604 5.36662 47.8031 5.94967 47.8031 6.43312C47.8031 6.85973 47.6893 7.22948 47.4618 7.54229C46.9784 8.08268 46.4664 8.49501 45.926 8.77944C45.3856 9.06386 44.888 9.20604 44.4329 9.20604C44.0632 9.20604 43.7788 9.12072 43.5797 8.95008ZM37.266 38.1723C36.6688 38.7983 35.9009 39.1109 34.9624 39.1109C33.9385 39.1109 33.0711 38.7409 32.3601 38.0017C31.8197 37.3191 31.4216 36.6224 31.1656 35.9114C30.9096 35.2003 30.7816 34.5604 30.7816 33.9916C30.7816 33.5366 30.867 33.1669 31.0376 32.8825C31.2083 32.6265 31.45 32.4985 31.7628 32.4985C32.0188 32.4985 32.3743 32.6265 32.8293 32.8825C33.2559 33.1384 33.4692 33.4086 33.4692 33.693C33.4692 34.2049 33.5261 34.6031 33.6399 34.8875C33.7252 35.1719 33.9385 35.3283 34.2798 35.3568C34.3651 35.3852 34.4789 35.3994 34.6211 35.3994C35.1615 35.3994 35.6876 35.0013 36.1995 34.2049C36.683 33.5792 37.2375 32.4132 37.8633 30.7068C38.5174 29.0289 38.8871 28.0761 38.9724 27.8486C39.1999 27.0522 39.399 26.1706 39.5697 25.2036C39.7688 24.2366 39.8967 23.6252 39.9536 23.3692L40.5082 20.383C40.5935 19.7289 40.7073 19.1032 40.8495 18.506C41.0201 17.9087 41.1196 17.539 41.1481 17.3968C41.1481 16.6858 41.2476 16.1312 41.4467 15.7331C41.4467 15.3633 41.5036 14.9083 41.6174 14.3679C41.7595 13.7992 41.8307 13.4436 41.8307 13.3014C41.9444 13.1876 42.2573 13.2303 42.7692 13.4294C43.2811 13.6 43.6509 13.7991 43.8783 14.0266C44.2196 14.3964 44.4614 14.7519 44.6036 15.0932C44.7742 15.406 44.8595 15.9606 44.8595 16.7569C44.8595 17.2404 44.8169 17.8945 44.7315 18.7193C44.7315 19.0606 44.5894 19.928 44.305 21.3215C44.0205 22.7151 43.7504 23.9238 43.4944 24.9477C43.3522 25.4881 43.2526 25.8435 43.1958 26.0142C43.0251 26.6114 42.9114 27.0807 42.8545 27.422C42.826 27.6495 42.6412 28.2325 42.2999 29.171C41.9586 29.9958 41.7595 30.5788 41.7027 30.9201C41.6174 31.5173 41.2761 32.4417 40.6788 33.693C40.4797 34.2049 39.9536 35.0013 39.1004 36.082C38.2757 37.1627 37.6641 37.8595 37.266 38.1723ZM51.1259 28.3605C50.8984 28.3605 50.5714 28.3036 50.1448 28.1898C49.7466 28.0761 49.5048 27.9765 49.4195 27.8912C49.2489 27.749 49.0782 27.5357 48.9076 27.2513C48.737 26.9385 48.6516 26.583 48.6516 26.1848C48.6516 25.5591 48.8791 24.905 49.3342 24.2224C49.5048 23.8812 49.9314 22.7009 50.614 20.6816L51.4672 18.3353C51.5241 17.8519 51.4957 17.5106 51.3819 17.3115C51.2681 17.084 51.0264 16.956 50.6567 16.9275C50.3439 16.9275 50.1163 16.828 49.9741 16.6289C49.8319 16.4014 49.7608 16.0459 49.7608 15.5624C49.8461 14.7377 50.1732 14.1404 50.742 13.7707C51.1971 13.5432 51.8227 13.4294 52.619 13.4294C53.3301 13.4294 53.7993 13.5289 54.0268 13.728C54.2543 13.8987 54.4534 14.2826 54.6241 14.8798C54.7947 15.4771 54.9227 16.0317 55.008 16.5436C55.1502 16.4583 55.5199 16.0743 56.1172 15.3918L57.0557 14.4106C57.5392 14.0693 58.0937 13.7422 58.7192 13.4294C59.3452 13.1166 59.7857 12.9601 60.0417 12.9601C60.3264 12.9601 60.6963 13.1023 61.1509 13.3867C61.6062 13.6712 61.9048 13.9413 62.0467 14.1973C62.4733 14.9936 62.6866 15.6477 62.6866 16.1597C62.6866 16.5578 62.5873 16.8707 62.388 17.0982C61.6201 18.0652 60.7669 18.5486 59.8284 18.5486C59.6011 18.5486 59.4165 18.5344 59.2738 18.506C59.1319 18.4775 58.9612 18.2785 58.7619 17.9087C58.563 17.539 58.4493 17.2546 58.4208 17.0555C58.4208 16.9702 58.2075 17.1408 57.7809 17.5674C57.3828 17.9656 57.1268 18.2215 57.013 18.3353L56.2878 19.1032C55.8328 19.6436 55.3635 20.3546 54.88 21.2362C54.425 22.1179 53.7424 23.4546 52.8323 25.2463L52.2778 26.5688C51.9933 27.2229 51.78 27.6921 51.6379 27.9765C51.4957 28.2325 51.325 28.3605 51.1259 28.3605ZM70.1677 11.5097C70.0824 11.595 69.997 11.6377 69.9117 11.6377C69.7977 11.6377 69.6131 11.5524 69.3571 11.3817C69.0725 11.3532 68.6885 11.1116 68.2053 10.6565C67.75 10.2014 67.5228 9.9028 67.5228 9.76062C67.4941 9.41934 67.5228 8.93588 67.6081 8.31017C67.6934 7.65608 67.8493 7.07303 68.0773 6.56111C68.3333 6.04918 68.6598 5.77903 69.0585 5.75056C69.2571 5.77903 69.5278 5.85008 69.8691 5.96386C70.2103 6.04918 70.5943 6.17716 71.0209 6.3478C71.5607 7.4285 71.8314 8.35284 71.8314 9.12072C71.8314 10.2584 71.2769 11.0546 70.1677 11.5097ZM66.2429 29.2137C65.5604 29.2137 64.9631 28.8582 64.4512 28.1472C63.9672 27.4362 63.6686 26.5546 63.5553 25.5023C63.6686 24.4499 63.7539 23.6821 63.8113 23.1986C64.1239 21.805 64.5078 20.1697 64.9631 18.2927C65.4464 16.3872 65.731 15.3349 65.8163 15.1358C65.9583 14.8798 66.1856 14.7519 66.4989 14.7519C66.8115 14.7519 67.1528 14.8798 67.5228 15.1358C67.9207 15.3633 68.248 15.6904 68.5039 16.117C68.7312 16.4298 68.8452 16.7854 68.8452 17.1835C68.8452 17.7807 68.5606 19.0321 67.992 20.9376C67.5933 22.3596 67.3374 23.3692 67.2241 23.9665C67.1101 24.5637 67.0675 25.2036 67.0962 25.8862C66.9821 27.166 66.8681 28.0477 66.7549 28.5311C66.6408 29.0146 66.4702 29.2422 66.2429 29.2137ZM84.8979 27.9765C84.4713 27.9765 84.0447 27.8628 83.6181 27.6353C83.1915 27.4078 82.8502 27.0665 82.5942 26.6114L82.3809 26.1848C82.0396 25.2178 81.869 24.2793 81.869 23.3692V21.4922C81.869 21.1794 81.8403 21.0229 81.7837 21.0229C81.5557 21.0229 80.5745 21.9473 78.8401 23.7958C77.6169 25.0756 76.5504 26.071 75.6406 26.7821C74.7587 27.4646 74.1475 27.8059 73.8062 27.8059C73.6922 27.8059 73.4223 27.7064 72.9957 27.5073C72.5691 27.2798 72.2984 27.1091 72.1851 26.9954C71.9858 26.7963 71.8578 26.5546 71.8012 26.2701C71.7438 25.9857 71.7159 25.4454 71.7159 24.649C71.7159 23.739 71.9005 22.7151 72.2704 21.5775C72.6397 20.4115 73.2656 18.8615 74.1475 16.9275C74.3748 16.5294 74.602 16.0459 74.8301 15.4771C75.4839 13.9982 76.0951 12.9743 76.6645 12.4056C76.8917 12.4056 77.0484 12.4198 77.1337 12.4482C77.5029 12.4767 77.9295 12.6473 78.4135 12.9601C78.9255 13.273 79.238 13.6854 79.3521 14.1973C79.3521 14.6807 79.2807 15.1643 79.1388 15.6477C78.996 16.1312 78.6695 16.7284 78.1576 17.4395C77.8442 17.8661 77.4323 18.7904 76.9204 20.2124C76.7777 20.4399 76.5791 20.7954 76.3232 21.2789C76.0951 21.734 75.9819 21.9899 75.9819 22.0468C76.0098 22.0752 76.0951 22.0183 76.2379 21.8761C76.3798 21.7055 76.5217 21.549 76.6645 21.4069L77.8163 20.255C80.0625 18.0082 81.7977 16.8564 83.0208 16.7996C83.646 16.7996 84.2006 17.1267 84.6846 17.7807C85.1678 18.4348 85.4098 19.217 85.4098 20.1271C85.4098 20.2977 85.3811 20.7812 85.3245 21.5775V24.0091C85.9784 23.8385 86.4763 23.6821 86.8176 23.5399C87.5281 23.2839 88.268 23.1275 89.0359 23.0706C88.9785 23.5541 88.7086 24.194 88.2254 24.9903C87.7701 25.7867 87.2295 26.4834 86.6043 27.0807C85.9784 27.6779 85.4098 27.9765 84.8979 27.9765Z" fill="#0B2A3B"/>
<path d="M51.7912 39.8982C51.7912 39.9293 51.764 39.9448 51.7097 39.9448C51.671 39.9448 51.6244 39.9293 51.5701 39.8982C51.5158 39.8672 51.4732 39.8245 51.4421 39.7702C51.3801 39.6384 51.3491 39.4755 51.3491 39.2816L51.3607 38.8046C51.6011 37.3929 51.8843 35.9735 52.21 34.5463C52.3186 34.1662 52.4078 33.8056 52.4776 33.4643C52.5552 33.123 52.6017 32.9058 52.6172 32.8127C52.6172 32.7895 52.594 32.8011 52.5474 32.8476C52.5086 32.8864 52.4699 32.9368 52.4311 32.9989C52.3923 33.0532 52.3768 33.092 52.3845 33.1152L52.0937 33.5457C52.0471 33.5923 51.9386 33.7707 51.7679 34.0809C51.6516 34.3291 51.5469 34.523 51.4538 34.6626L51.128 35.2793C50.8876 35.7214 50.7402 35.989 50.6859 36.0821C50.6083 36.1984 50.4959 36.4001 50.3485 36.6871C50.2709 36.8732 50.1313 37.0943 49.9296 37.3502C49.8676 37.4356 49.8055 37.5286 49.7435 37.6295C49.6892 37.7303 49.6543 37.7962 49.6388 37.8273C49.6388 37.866 49.5573 37.9979 49.3945 38.2228C49.2393 38.4478 49.0958 38.6339 48.964 38.7813C48.7856 38.9675 48.6382 39.1032 48.5219 39.1885C48.4055 39.2661 48.2969 39.3049 48.1961 39.3049C48.0642 39.3049 47.9207 39.2312 47.7656 39.0838C47.6648 38.9752 47.5911 38.8472 47.5445 38.6999C47.5058 38.5525 47.4864 38.3702 47.4864 38.153C47.4864 37.9591 47.5135 37.6334 47.5678 37.1757C47.5756 37.1369 47.6493 36.722 47.7889 35.9308C47.9362 35.1319 48.0254 34.6937 48.0565 34.6161C48.0642 34.5696 48.0681 34.5153 48.0681 34.4532C48.0681 34.3834 48.0565 34.3485 48.0332 34.3485C48.0099 34.3485 47.9673 34.3989 47.9052 34.4998C47.882 34.5308 47.7423 34.748 47.4864 35.1513C47.2382 35.5546 46.9706 36.0704 46.6836 36.6987C46.2337 37.5286 45.9002 38.153 45.683 38.5719C45.4658 38.983 45.3068 39.2777 45.206 39.4561C45.0741 39.7121 44.9966 39.8517 44.9733 39.875C44.8569 39.875 44.7096 39.778 44.5312 39.5841C44.5079 39.5376 44.4963 39.4949 44.4963 39.4561C44.4963 39.4018 44.5195 39.3126 44.5661 39.1885C44.6204 39.0644 44.6941 38.9015 44.7871 38.6999C45.0276 38.2267 45.1866 37.9591 45.2642 37.8971C45.3572 37.773 45.4115 37.6372 45.427 37.4899C45.5279 37.3502 45.6714 37.0982 45.8575 36.7336C45.9739 36.5475 46.1096 36.3148 46.2647 36.0355C46.4276 35.7563 46.5711 35.4887 46.6952 35.2327L47.021 34.6626C47.3235 34.1352 47.5639 33.728 47.7423 33.441C47.9285 33.154 48.0681 32.964 48.1612 32.8709C48.2853 32.7235 48.3473 32.6072 48.3473 32.5219C48.3473 32.359 48.3784 32.2116 48.4404 32.0798C48.5102 31.9401 48.58 31.8781 48.6498 31.8936C48.7429 31.8936 48.8166 31.9052 48.8709 31.9285C48.9329 31.944 48.995 31.9906 49.057 32.0681C49.0726 32.0914 49.0958 32.1302 49.1269 32.1845C49.1656 32.231 49.1928 32.2853 49.2083 32.3474C49.2316 32.4017 49.2432 32.4715 49.2432 32.5568C49.2432 32.6499 49.2316 32.7662 49.2083 32.9058C49.2005 33.0067 49.1695 33.2355 49.1152 33.5923C49.0842 33.7629 49.0687 33.8676 49.0687 33.9064C48.867 34.5192 48.6847 35.287 48.5219 36.21C48.3667 37.1253 48.2892 37.7691 48.2892 38.1414C48.2892 38.2267 48.2969 38.2849 48.3124 38.3159C48.3667 38.3547 48.4133 38.3586 48.452 38.3276C48.4986 38.2965 48.5645 38.1957 48.6498 38.0251C48.7507 37.8389 48.9213 37.5984 49.1618 37.3037C49.1773 37.2804 49.3285 37.0245 49.6155 36.5358C50.3291 35.3646 51.0233 34.1895 51.6981 33.0105L52.0006 32.5335C52.117 32.3474 52.2294 32.1767 52.338 32.0216C52.4466 31.8587 52.5319 31.754 52.594 31.7075C52.6715 31.6454 52.7452 31.6144 52.815 31.6144C52.9624 31.6144 53.0943 31.7036 53.2106 31.882C53.327 32.0604 53.3851 32.2853 53.3851 32.5568C53.3851 32.7662 53.3425 33.0881 53.2571 33.5225C53.1718 33.9491 53.0594 34.3795 52.9197 34.8139C52.8732 35.0311 52.8073 35.3025 52.722 35.6283C52.6366 35.9541 52.5474 36.2488 52.4544 36.5126C52.4388 36.6444 52.4078 36.8112 52.3613 37.0128C52.3535 37.0516 52.3303 37.1718 52.2915 37.3735C52.2604 37.5674 52.2527 37.6993 52.2682 37.7691C52.1519 37.9785 52.0937 38.3974 52.0937 39.0256L52.0588 39.2932C52.0433 39.5104 52.0278 39.6578 52.0122 39.7353C51.9967 39.8129 51.9735 39.8478 51.9424 39.84C51.9269 39.8323 51.9037 39.8284 51.8726 39.8284C51.8183 39.8284 51.7912 39.8517 51.7912 39.8982ZM53.7193 38.9209C53.6961 38.8744 53.6573 38.8278 53.603 38.7813C53.5565 38.727 53.5332 38.6921 53.5332 38.6766C53.5332 38.5913 53.5138 38.5253 53.475 38.4788C53.4595 38.4633 53.4518 38.4284 53.4518 38.3741C53.4518 38.25 53.5099 38.0406 53.6263 37.7458C53.7504 37.4433 53.9094 37.1175 54.1033 36.7685C54.1498 36.722 54.208 36.6405 54.2778 36.5242C54.3554 36.4078 54.4058 36.3419 54.4291 36.3264C54.4291 36.2954 54.4407 36.2682 54.464 36.245C54.4872 36.2139 54.5144 36.1984 54.5454 36.1984V36.1286C54.5454 36.0588 54.6734 35.892 54.9294 35.6283C55.1853 35.3568 55.3947 35.1707 55.5576 35.0699C55.7515 34.938 55.9493 34.8721 56.151 34.8721C56.2906 34.8721 56.4108 34.9109 56.5117 34.9884C56.5504 35.035 56.7288 35.2017 57.0468 35.4887L57.4773 35.8726L57.2679 36.4544C57.1981 36.6638 57.1632 36.8538 57.1632 37.0245C57.1632 37.3192 57.2485 37.6023 57.4192 37.8738C57.4579 37.9591 57.5355 38.0406 57.6518 38.1181C57.7682 38.1957 57.8845 38.2422 58.0009 38.2577C58.1715 38.2888 58.2568 38.3741 58.2568 38.5137C58.2568 38.6688 58.187 38.7619 58.0474 38.7929C58.0164 38.8007 57.9699 38.8046 57.9078 38.8046C57.4502 38.8046 57.0546 38.4827 56.7211 37.8389C56.6901 37.7924 56.6474 37.707 56.5931 37.5829C56.5466 37.4588 56.5194 37.3735 56.5117 37.327C56.4651 37.389 56.4069 37.4627 56.3371 37.548C56.2673 37.6334 56.2014 37.707 56.1394 37.7691C55.2939 38.6145 54.6268 39.0373 54.1382 39.0373C53.9831 39.0373 53.8435 38.9985 53.7193 38.9209ZM54.1382 38.2694C54.1382 38.3082 54.177 38.3198 54.2545 38.3043C54.3399 38.2888 54.4407 38.25 54.557 38.1879C54.6811 38.1259 54.8052 38.0444 54.9294 37.9436C55.5964 37.3696 56.0773 36.8693 56.372 36.4427L56.628 36.0239C56.5504 35.861 56.469 35.7447 56.3837 35.6749C56.2984 35.5973 56.2208 35.5585 56.151 35.5585C55.9881 35.5585 55.7321 35.7641 55.3831 36.1751C55.0341 36.5785 54.716 37.0555 54.4291 37.6062C54.3593 37.7381 54.2972 37.8738 54.2429 38.0134C54.1886 38.1453 54.1537 38.2306 54.1382 38.2694ZM59.0659 38.7115C58.9496 38.7115 58.8604 38.6843 58.7983 38.6301C58.7363 38.5758 58.6936 38.5331 58.6703 38.5021C58.6548 38.471 58.6471 38.4323 58.6471 38.3857C58.6471 38.3547 58.6742 38.2112 58.7285 37.9552L58.8332 37.5713C58.9108 37.2533 58.9806 36.9896 59.0426 36.7801C59.0737 36.5862 59.1319 36.3807 59.2172 36.1635C59.3103 35.9463 59.3645 35.8145 59.3801 35.7679C59.4421 35.543 59.5623 35.194 59.7407 34.7208L60.0898 33.7784C60.3612 33.0416 60.5241 32.5917 60.5784 32.4288L60.7646 31.9169C60.7646 31.7928 60.8266 31.7307 60.9507 31.7307C61.0593 31.7307 61.1485 31.7928 61.2183 31.9169C61.2959 32.0332 61.3347 32.169 61.3347 32.3241C61.3347 32.4404 61.3114 32.5529 61.2649 32.6615C61.1563 32.8942 61.036 33.1889 60.9042 33.5457C60.7801 33.8948 60.6986 34.1236 60.6599 34.2322C60.3961 34.9768 60.2061 35.4732 60.0898 35.7214C60.0898 35.7524 60.0781 35.8067 60.0549 35.8843C60.0316 35.9618 60.0044 36.0317 59.9734 36.0937L59.8454 36.3497C59.8454 36.3729 59.8028 36.5358 59.7175 36.8383C59.6089 37.1718 59.5429 37.4162 59.5197 37.5713C59.5585 37.5015 59.6399 37.3968 59.764 37.2572C59.8881 37.1098 60.0044 36.9896 60.113 36.8965C60.5396 36.5319 60.8034 36.3148 60.9042 36.245C60.9973 36.1907 61.0748 36.1402 61.1369 36.0937C61.1989 36.0472 61.2416 36.0161 61.2649 36.0006C61.2649 35.9618 61.3075 35.9425 61.3928 35.9425C61.4239 35.9425 61.4394 35.9386 61.4394 35.9308C61.4471 35.9231 61.451 35.9037 61.451 35.8726C61.451 35.8184 61.5402 35.7718 61.7186 35.733C61.897 35.6865 62.056 35.6632 62.1956 35.6632C62.2887 35.6632 62.3624 35.6826 62.4167 35.7214C62.471 35.7602 62.5408 35.8455 62.6261 35.9774C62.758 36.1635 62.8239 36.3652 62.8239 36.5824C62.8239 36.7065 62.8006 36.8344 62.7541 36.9663C62.7541 37.0284 62.7425 37.1253 62.7192 37.2572C62.7037 37.3813 62.6959 37.4899 62.6959 37.5829L62.6261 37.9552H62.8123C62.8666 37.9552 62.917 37.963 62.9635 37.9785C63.0178 37.994 63.0527 38.0057 63.0682 38.0134C63.138 38.0987 63.2001 38.1414 63.2544 38.1414C63.3242 38.1414 63.3591 38.1685 63.3591 38.2228C63.3591 38.2539 63.3436 38.2926 63.3126 38.3392C63.2815 38.3857 63.2389 38.4245 63.1846 38.4555C62.9829 38.5796 62.8123 38.6417 62.6726 38.6417C62.5408 38.6417 62.4051 38.5796 62.2654 38.4555C62.0948 38.2849 62.0095 38.0793 62.0095 37.8389C62.0095 37.7148 62.0327 37.5674 62.0793 37.3968L62.1142 37.0245C62.1297 36.8383 62.1375 36.722 62.1375 36.6754C62.1375 36.497 62.0948 36.4078 62.0095 36.4078C61.9009 36.4078 61.6915 36.5048 61.3812 36.6987C61.0787 36.8849 60.7646 37.1214 60.4388 37.4084C60.113 37.6876 59.8532 37.9708 59.6593 38.2577C59.5429 38.4051 59.4421 38.5176 59.3568 38.5951C59.2792 38.665 59.2055 38.7037 59.1357 38.7115H59.0659ZM67.4529 35.0233C67.515 35.1474 67.546 35.2832 67.546 35.4305C67.546 35.6632 67.484 35.8726 67.3598 36.0588C67.2823 36.1674 67.2125 36.3303 67.1504 36.5475C67.0961 36.7646 67.0418 37.0555 66.9875 37.4201C66.9177 37.7148 66.8324 38.1685 66.7316 38.7813C66.6075 39.1071 66.5299 39.3514 66.4989 39.5143C66.4911 39.5608 66.4524 39.6578 66.3825 39.8051C66.3205 39.9525 66.2701 40.0689 66.2313 40.1542C65.9288 40.7825 65.5836 41.2634 65.1958 41.5969C64.808 41.9304 64.3853 42.1127 63.9276 42.1437C63.8035 42.1592 63.7298 42.167 63.7066 42.167C63.6368 42.167 63.5708 42.1553 63.5088 42.1321C63.4545 42.1088 63.3924 42.0778 63.3226 42.039C63.2916 42.0235 63.249 41.9963 63.1947 41.9576C63.1404 41.9188 63.1016 41.8877 63.0783 41.8645C63.0628 41.849 63.055 41.8296 63.055 41.8063C63.055 41.7675 63.0783 41.7287 63.1248 41.69C63.1714 41.6512 63.2451 41.6318 63.3459 41.6318C63.4002 41.6628 63.4933 41.6783 63.6251 41.6783C63.757 41.6783 63.8346 41.6628 63.8578 41.6318C63.8733 41.6163 63.9199 41.5891 63.9974 41.5503C64.075 41.5193 64.1642 41.4922 64.265 41.4689C64.5055 41.3526 64.7188 41.2013 64.9049 41.0152C65.0989 40.8368 65.2773 40.6079 65.4401 40.3287C65.634 40.034 65.762 39.7664 65.8241 39.5259C65.8939 39.363 65.9715 39.1303 66.0568 38.8278C66.1499 38.5176 66.2235 38.2384 66.2778 37.9901L66.1266 38.1298C66.0878 38.1763 65.9908 38.2461 65.8357 38.3392C65.6806 38.4245 65.5875 38.4672 65.5565 38.4672C65.5487 38.4672 65.5371 38.471 65.5216 38.4788C65.5061 38.4866 65.4983 38.5021 65.4983 38.5253C65.4983 38.5564 65.3975 38.6068 65.1958 38.6766C64.9941 38.7386 64.8662 38.7697 64.8119 38.7697C64.7343 38.7697 64.649 38.7309 64.5559 38.6533C64.4706 38.568 64.4085 38.4866 64.3698 38.409C64.3465 38.3547 64.3155 38.2926 64.2767 38.2228C64.2379 38.153 64.2069 38.0871 64.1836 38.0251C64.1603 37.9552 64.1487 37.8777 64.1487 37.7924C64.1487 37.6915 64.1565 37.614 64.172 37.5597C64.265 37.2106 64.4202 36.7181 64.6374 36.0821C64.8623 35.446 65.0329 35.0388 65.1493 34.8604C65.2113 34.7751 65.285 34.7325 65.3703 34.7325C65.4867 34.7325 65.5798 34.7945 65.6496 34.9186C65.7194 35.0117 65.7543 35.0892 65.7543 35.1513C65.7543 35.1978 65.7349 35.2638 65.6961 35.3491C65.6573 35.4344 65.6069 35.5352 65.5449 35.6516C65.5138 35.7369 65.475 35.83 65.4285 35.9308C65.382 36.0317 65.3587 36.0937 65.3587 36.117C65.3509 36.148 65.3277 36.245 65.2889 36.4078C65.2501 36.563 65.2152 36.6405 65.1842 36.6405C65.1299 36.6871 65.0717 36.8655 65.0097 37.1757C64.9476 37.486 64.9166 37.7264 64.9166 37.8971C64.9166 37.9824 64.9282 38.0251 64.9515 38.0251C65.4091 38.0251 65.9055 37.6838 66.4407 37.0012C66.5105 36.6599 66.5726 36.3729 66.6269 36.1402C66.7277 35.7447 66.8053 35.3918 66.8596 35.0815C66.9061 34.9729 66.941 34.9109 66.9643 34.8953C66.9875 34.8721 67.038 34.8604 67.1155 34.8604C67.2086 34.8604 67.2745 34.8682 67.3133 34.8837C67.3521 34.8992 67.3986 34.9458 67.4529 35.0233ZM70.813 39.3165C70.7587 39.3475 70.685 39.3359 70.592 39.2816C70.5066 39.2273 70.4213 39.1459 70.336 39.0373C70.2739 38.9364 70.2352 38.8317 70.2196 38.7231C70.2119 38.6145 70.208 38.3896 70.208 38.0483C70.208 37.9708 70.1925 37.932 70.1615 37.932C70.1382 37.932 70.0839 37.9708 69.9986 38.0483C69.9133 38.1181 69.8085 38.2151 69.6844 38.3392C69.4828 38.5331 69.2966 38.6843 69.126 38.7929C68.9553 38.9015 68.8157 38.9519 68.7071 38.9442C68.6218 38.9442 68.5287 38.886 68.4279 38.7697C68.3348 38.6533 68.2611 38.5176 68.2069 38.3625C68.1836 38.2694 68.1719 38.1608 68.1719 38.0367C68.1719 37.7109 68.2379 37.3153 68.3697 36.85C68.5094 36.3846 68.6684 35.9851 68.8468 35.6516C69.0329 35.3103 69.1958 35.1397 69.3354 35.1397C69.4518 35.1397 69.5603 35.2676 69.6612 35.5236C69.6844 35.5701 69.6961 35.6089 69.6961 35.64C69.6961 35.6943 69.6651 35.7485 69.603 35.8028C69.4867 35.9502 69.3509 36.2139 69.1958 36.594C69.0407 36.9741 68.9166 37.327 68.8235 37.6527C68.7382 37.9785 68.7227 38.1414 68.7769 38.1414C68.8855 38.1414 69.0135 38.0987 69.1609 38.0134C69.3083 37.9281 69.4556 37.8156 69.603 37.676C69.7504 37.5286 69.8822 37.3735 69.9986 37.2106C70.1149 37.04 70.2584 36.8112 70.4291 36.5242C70.7548 36.0045 70.9332 35.702 70.9643 35.6167C71.0806 35.3995 71.162 35.2599 71.2086 35.1978C71.2629 35.128 71.3288 35.0815 71.4064 35.0582H71.5693C71.6158 35.066 71.6701 35.1009 71.7321 35.1629C71.7864 35.1862 71.8175 35.2134 71.8252 35.2444C71.8407 35.2676 71.8485 35.3026 71.8485 35.3491L71.6623 35.7796L71.5576 36.0239C71.5499 36.0549 71.5072 36.1441 71.4296 36.2915C71.2512 36.6871 71.1155 37.0051 71.0224 37.2455C70.9293 37.486 70.8595 37.7342 70.813 37.9901C70.8052 38.0289 70.8014 38.0949 70.8014 38.1879C70.8014 38.4206 70.8246 38.5835 70.8712 38.6766C70.941 38.8162 71.0108 38.917 71.0806 38.9791C71.1194 39.0101 71.1388 39.0411 71.1388 39.0722C71.1388 39.1265 71.0922 39.1808 70.9992 39.235C70.9138 39.2893 70.8518 39.3165 70.813 39.3165ZM74.9798 39.3049C74.9255 39.3281 74.8789 39.3398 74.8401 39.3398C74.8091 39.3398 74.7703 39.3243 74.7238 39.2932C74.6772 39.2622 74.6191 39.2195 74.5493 39.1652C74.495 39.0799 74.4601 39.0024 74.4446 38.9326C74.4368 38.8627 74.4329 38.7231 74.4329 38.5137C74.4562 38.2965 74.5454 37.9126 74.7005 37.3619C74.8556 36.8034 74.9681 36.4427 75.0379 36.2799C75.0689 36.179 75.0845 36.0937 75.0845 36.0239C75.0845 35.9618 75.0651 35.9231 75.0263 35.9075C74.9875 35.8843 74.9099 35.8649 74.7936 35.8494C74.5066 35.8184 74.239 35.9076 73.9908 36.117C73.7504 36.3264 73.4905 36.6522 73.2113 37.0943C72.9631 37.4821 72.839 37.8195 72.839 38.1065C72.839 38.1608 72.8467 38.2112 72.8622 38.2577C72.8855 38.3198 72.9476 38.3508 73.0484 38.3508C73.1182 38.3508 73.2035 38.3353 73.3044 38.3043C73.413 38.2733 73.506 38.2345 73.5836 38.1879C73.6301 38.1647 73.7775 38.0987 74.0257 37.9901C74.0722 37.9901 74.1033 38.0057 74.1188 38.0367C74.1421 38.06 74.1537 38.1104 74.1537 38.1879C74.1537 38.25 74.1925 38.2965 74.27 38.3276C74.3011 38.3663 74.2545 38.44 74.1304 38.5486C74.0063 38.6494 73.824 38.7697 73.5836 38.9093C73.3897 38.9636 73.2152 38.9907 73.06 38.9907C72.9049 38.9907 72.7537 38.9403 72.6063 38.8395C72.3503 38.6921 72.2223 38.4284 72.2223 38.0483C72.2223 37.7924 72.2883 37.4743 72.4201 37.0943C72.552 36.784 72.6955 36.5242 72.8506 36.3148C73.0135 36.0976 73.2229 35.8571 73.4789 35.5934C73.5177 35.5546 73.5952 35.5042 73.7116 35.4422C73.8357 35.3724 73.9714 35.3142 74.1188 35.2676C74.367 35.1901 74.5725 35.1513 74.7354 35.1513C74.875 35.1513 74.9991 35.1862 75.1077 35.256L75.259 35.2793C75.321 35.2793 75.3676 35.2521 75.3986 35.1978C75.4374 35.1435 75.4956 35.0194 75.5731 34.8255L75.864 34.0577C75.926 33.8948 76.0191 33.6466 76.1432 33.313C76.2751 32.9795 76.3953 32.6848 76.5039 32.4288C76.5582 32.328 76.6008 32.2233 76.6319 32.1147C76.6706 32.0061 76.7017 31.9401 76.7249 31.9169H76.946C76.9848 31.9169 77.043 31.9479 77.1205 32.01C77.1981 32.0643 77.2485 32.1341 77.2718 32.2194C77.2718 32.3047 77.2369 32.4715 77.1671 32.7197C77.0973 32.9601 77.0003 33.2277 76.8762 33.5225C76.8141 33.6776 76.7637 33.7939 76.7249 33.8715C76.4535 34.5153 76.2673 34.9962 76.1665 35.3142L75.9571 35.8494C75.864 36.0433 75.8097 36.1868 75.7942 36.2799C75.7399 36.5048 75.6778 36.7026 75.608 36.8732C75.5382 37.0361 75.4994 37.1292 75.4917 37.1525L75.387 37.4666C75.2551 37.8467 75.1659 38.1143 75.1194 38.2694C75.0806 38.4168 75.0612 38.568 75.0612 38.7231C75.0612 38.8783 75.069 39.0062 75.0845 39.1071C75.0845 39.1924 75.0496 39.2583 74.9798 39.3049ZM80.0013 39.5608C79.8073 39.6074 79.6755 39.522 79.6057 39.3049C79.4971 39.0024 79.4428 38.6843 79.4428 38.3508C79.4428 38.2577 79.4467 38.1918 79.4544 38.153L79.4777 37.9087L79.0239 38.2694C78.7757 38.4866 78.5275 38.6494 78.2793 38.758C78.0389 38.8666 77.8178 38.9209 77.6162 38.9209C77.4843 38.8976 77.3563 38.8434 77.2322 38.758C77.1159 38.665 77.0305 38.5564 76.9762 38.4323C76.9452 38.3702 76.9297 38.2771 76.9297 38.153C76.9297 37.866 77.0073 37.5286 77.1624 37.1408C77.3175 36.7452 77.5114 36.4195 77.7441 36.1635C78.0777 35.6593 78.45 35.4073 78.8611 35.4073C79.055 35.4073 79.2489 35.4654 79.4428 35.5818C79.6367 35.6593 79.7492 35.6981 79.7802 35.6981C79.8267 35.6981 79.8616 35.6787 79.8849 35.64C79.9082 35.6012 79.9314 35.5314 79.9547 35.4305C80.04 35.0737 80.1215 34.7751 80.199 34.5347C80.3697 34.0227 80.5171 33.6117 80.6412 33.3014C80.7653 32.9911 80.9165 32.6499 81.0949 32.2775C81.1725 32.1147 81.2384 32.01 81.2927 31.9634C81.3547 31.9091 81.4207 31.8859 81.4905 31.8936C81.6611 31.8936 81.793 32.01 81.8861 32.2426C81.9093 32.2969 81.921 32.3512 81.921 32.4055C81.921 32.4598 81.8977 32.5335 81.8512 32.6266C81.6495 32.9756 81.4013 33.5457 81.1065 34.3369C80.8118 35.128 80.583 35.8145 80.4201 36.3962C80.3503 36.6522 80.2882 37.0206 80.2339 37.5015C80.1874 37.9824 80.1641 38.3818 80.1641 38.6999C80.1641 38.8395 80.1719 38.9403 80.1874 39.0024C80.2262 39.1342 80.2456 39.2506 80.2456 39.3514C80.2456 39.429 80.2262 39.4794 80.1874 39.5026C80.1486 39.5337 80.0866 39.5531 80.0013 39.5608ZM78.035 38.2694C78.2134 38.2306 78.4306 38.1142 78.6865 37.9203C78.7331 37.8893 78.8455 37.8079 79.0239 37.676C79.2023 37.5442 79.3381 37.4045 79.4312 37.2572C79.5242 37.1098 79.5902 36.943 79.6289 36.7569C79.6367 36.6173 79.6212 36.5048 79.5824 36.4195C79.5514 36.3264 79.4855 36.2372 79.3846 36.1519C79.3071 36.0976 79.2101 36.0704 79.0938 36.0704C78.8843 36.0704 78.6904 36.1558 78.512 36.3264C78.3026 36.5126 78.1164 36.753 77.9536 37.0477C77.7907 37.3425 77.6666 37.6838 77.5812 38.0716C77.558 38.219 77.6355 38.2926 77.8139 38.2926C77.907 38.2926 77.9807 38.2849 78.035 38.2694ZM83.4513 34.3601C83.3039 34.3601 83.1527 34.2826 82.9976 34.1275C82.8502 33.9646 82.7765 33.7978 82.7765 33.6272C82.7765 33.5884 82.823 33.4992 82.9161 33.3596C83.0092 33.22 83.0557 33.1424 83.0557 33.1269C83.11 33.1269 83.1566 33.1308 83.1953 33.1385C83.2341 33.1463 83.2807 33.1618 83.335 33.1851C83.4048 33.3402 83.5134 33.4992 83.6607 33.6621C83.7073 33.7241 83.7499 33.7823 83.7887 33.8366C83.8275 33.8909 83.8469 33.9374 83.8469 33.9762C83.8469 34.1081 83.8391 34.1973 83.8236 34.2438C83.8158 34.2903 83.7848 34.3214 83.7305 34.3369C83.684 34.3524 83.5909 34.3601 83.4513 34.3601ZM81.741 38.7697C81.7177 38.7697 81.6867 38.7619 81.6479 38.7464C81.6092 38.7309 81.582 38.7193 81.5665 38.7115C81.5665 38.6882 81.5549 38.6494 81.5316 38.5951C81.5161 38.5331 81.5083 38.4943 81.5083 38.4788C81.4463 38.4478 81.4152 38.409 81.4152 38.3625C81.4152 38.3237 81.4269 38.2694 81.4501 38.1996C81.551 38.0212 81.7294 37.6178 81.9853 36.9896C82.2413 36.3535 82.3848 35.9774 82.4158 35.861C82.4158 35.83 82.4275 35.7912 82.4507 35.7447C82.474 35.6981 82.5011 35.6593 82.5322 35.6283C82.5632 35.5973 82.5981 35.5818 82.6369 35.5818C82.7222 35.5818 82.7998 35.64 82.8696 35.7563C82.9471 35.8726 82.9859 36.0006 82.9859 36.1402C82.9859 36.2333 82.8967 36.5009 82.7183 36.943C82.5477 37.3774 82.3538 37.8156 82.1366 38.2577C82.1056 38.3198 82.059 38.409 81.997 38.5253C81.9427 38.6417 81.9 38.7115 81.869 38.7348C81.838 38.758 81.7953 38.7697 81.741 38.7697ZM87.2969 39.2001C87.1806 39.2001 87.0604 39.1109 86.9363 38.9326C86.8199 38.7464 86.7617 38.5641 86.7617 38.3857C86.7617 38.2616 86.7889 38.0406 86.8432 37.7226C86.9052 37.3968 86.9789 37.0788 87.0642 36.7685C87.1108 36.6289 87.134 36.5281 87.134 36.466C87.134 36.4272 87.1185 36.4078 87.0875 36.4078C87.0565 36.4078 86.9634 36.4544 86.8083 36.5475C86.5601 36.6793 86.3894 36.7995 86.2964 36.9081C86.2576 36.9392 86.1955 36.9934 86.1102 37.071C86.0249 37.1486 85.9473 37.2106 85.8775 37.2572C85.7301 37.3735 85.5324 37.5442 85.2841 37.7691C85.0437 37.9863 84.8459 38.1724 84.6908 38.3276C84.6442 38.4129 84.5783 38.4555 84.493 38.4555C84.4697 38.4555 84.4348 38.4478 84.3883 38.4323C84.2952 38.409 84.2138 38.3586 84.144 38.281C84.0741 38.1957 84.0392 38.1065 84.0392 38.0134C84.0392 37.8971 84.1052 37.6527 84.237 37.2804C84.3766 36.9081 84.5473 36.5009 84.749 36.0588C84.78 36.0045 84.8071 35.9269 84.8304 35.8261C84.8537 35.7175 84.8653 35.6167 84.8653 35.5236C84.8653 35.4693 84.8769 35.4073 84.9002 35.3375C84.9235 35.2676 84.9506 35.2172 84.9816 35.1862C85.0049 35.1474 85.0398 35.128 85.0864 35.128C85.1872 35.128 85.2725 35.1862 85.3423 35.3026C85.4664 35.4189 85.5285 35.5663 85.5285 35.7447C85.5285 35.892 85.4858 36.0821 85.4005 36.3148C85.3462 36.4234 85.3035 36.5126 85.2725 36.5824C85.2492 36.6444 85.2337 36.6871 85.226 36.7103C85.2492 36.7103 85.3501 36.656 85.5285 36.5475L85.8193 36.3729L86.1684 36.1053C86.3468 35.9657 86.4476 35.8959 86.4709 35.8959C86.5019 35.8959 86.5407 35.8843 86.5872 35.861C86.6338 35.8377 86.6725 35.8106 86.7036 35.7796C86.7268 35.7563 86.7462 35.7408 86.7617 35.733C86.785 35.7253 86.8005 35.7214 86.8083 35.7214C86.816 35.7214 86.8354 35.7175 86.8664 35.7098C86.8975 35.702 86.9246 35.6865 86.9479 35.6632C86.9789 35.6322 87.0332 35.6167 87.1108 35.6167C87.2194 35.6167 87.328 35.6516 87.4365 35.7214C87.5451 35.7912 87.5994 35.8688 87.5994 35.9541C87.5994 35.9774 87.6072 36.0006 87.6227 36.0239C87.6382 36.0394 87.6499 36.051 87.6576 36.0588C87.6886 36.0588 87.7158 36.1015 87.739 36.1868C87.7623 36.2643 87.7739 36.3613 87.7739 36.4776C87.7739 36.6483 87.7546 36.7918 87.7158 36.9081C87.7158 36.9934 87.7003 37.102 87.6692 37.2339C87.6382 37.3658 87.6188 37.4511 87.6111 37.4899L87.5413 37.7924C87.4404 38.1026 87.39 38.3586 87.39 38.5602C87.39 38.7154 87.421 38.8356 87.4831 38.9209C87.4986 38.9519 87.5064 38.983 87.5064 39.014C87.5064 39.0605 87.487 39.1032 87.4482 39.142C87.4172 39.1808 87.3667 39.2001 87.2969 39.2001Z" fill="#0B2A3B"/>
</svg>
